<?xml version="1.0" encoding="UTF-8"?>
<svg version="1.1" xmlns="http://www.w3.org/2000/svg" width="912" height="717">
<path d="M0 0 C1.63847145 -0.00472824 1.63847145 -0.00472824 3.31004333 -0.009552 C4.47882523 -0.00752777 5.64760712 -0.00550354 6.85180664 -0.00341797 C8.07291641 -0.00437469 9.29402618 -0.00533142 10.55213928 -0.00631714 C13.13681083 -0.00699695 15.72148409 -0.00515653 18.30615234 -0.00097656 C22.216593 0.00433293 26.12691662 -0.00090679 30.03735352 -0.00732422 C57.67335515 -0.01572361 57.67335515 -0.01572361 66.32446289 1.12939453 C66.81946289 1.62439453 66.81946289 1.62439453 67.32446289 2.12939453 C69.65188278 2.50178171 71.98682004 2.8277632 74.32446289 3.12939453 C81.21335178 4.01828342 81.21335178 4.01828342 82.32446289 5.12939453 C84.21379584 5.47905335 86.11148001 5.78404283 88.01196289 6.06689453 C92.31706478 6.75652216 96.22685294 7.61506042 100.32446289 9.12939453 C101.88629606 9.56926911 103.44887997 10.00648176 105.01196289 10.44189453 C109.76647714 11.85327957 114.14182883 13.77257845 118.62133789 15.88720703 C121.07953978 17.01684316 123.54201844 17.99432426 126.07446289 18.94189453 C137.13641576 23.30336403 147.44604233 29.57455472 157.32446289 36.12939453 C158.59676758 36.95310547 158.59676758 36.95310547 159.89477539 37.79345703 C163.35776858 40.05386738 166.41511191 42.18735421 169.32446289 45.12939453 C170.06696289 45.54189453 170.80946289 45.95439453 171.57446289 46.37939453 C174.74117136 48.39457265 177.03115619 50.77284115 179.57836914 53.50830078 C181.38854374 55.18888793 183.07398374 56.13957766 185.32446289 57.12939453 C185.32446289 57.78939453 185.32446289 58.44939453 185.32446289 59.12939453 C186.31446289 59.45939453 187.30446289 59.78939453 188.32446289 60.12939453 C188.32446289 60.78939453 188.32446289 61.44939453 188.32446289 62.12939453 C188.96383789 62.39751953 189.60321289 62.66564453 190.26196289 62.94189453 C192.32446289 64.12939453 192.32446289 64.12939453 193.32446289 67.12939453 C194.31446289 67.45939453 195.30446289 67.78939453 196.32446289 68.12939453 C196.32446289 68.78939453 196.32446289 69.44939453 196.32446289 70.12939453 C197.31446289 70.45939453 198.30446289 70.78939453 199.32446289 71.12939453 C199.32446289 71.78939453 199.32446289 72.44939453 199.32446289 73.12939453 C199.96383789 73.39751953 200.60321289 73.66564453 201.26196289 73.94189453 C203.32446289 75.12939453 203.32446289 75.12939453 204.32446289 78.12939453 C205.31446289 78.45939453 206.30446289 78.78939453 207.32446289 79.12939453 C207.32446289 79.78939453 207.32446289 80.44939453 207.32446289 81.12939453 C208.31446289 81.45939453 209.30446289 81.78939453 210.32446289 82.12939453 C210.32446289 82.78939453 210.32446289 83.44939453 210.32446289 84.12939453 C210.94321289 84.37689453 211.56196289 84.62439453 212.19946289 84.87939453 C214.76272518 86.38719588 215.16880193 87.43285229 216.32446289 90.12939453 C218.18221011 93.77947927 218.18221011 93.77947927 221.32446289 96.12939453 C221.32446289 96.78939453 221.32446289 97.44939453 221.32446289 98.12939453 C221.98446289 98.12939453 222.64446289 98.12939453 223.32446289 98.12939453 C224.37090355 99.76730165 225.36428119 101.43947474 226.32446289 103.12939453 C226.81946289 103.78939453 227.31446289 104.44939453 227.82446289 105.12939453 C232.32446289 111.12939453 232.32446289 111.12939453 232.32446289 115.12939453 C232.98446289 115.12939453 233.64446289 115.12939453 234.32446289 115.12939453 C234.65446289 117.10939453 234.98446289 119.08939453 235.32446289 121.12939453 C235.98446289 121.12939453 236.64446289 121.12939453 237.32446289 121.12939453 C239.86378569 124.54771368 240.68808269 126.88716351 240.32446289 131.12939453 C240.98446289 131.12939453 241.64446289 131.12939453 242.32446289 131.12939453 C242.65446289 133.10939453 242.98446289 135.08939453 243.32446289 137.12939453 C243.98446289 137.12939453 244.64446289 137.12939453 245.32446289 137.12939453 C245.6505957 138.14259766 245.97672852 139.15580078 246.31274414 140.19970703 C246.75390525 141.55134957 247.19532531 142.9029076 247.63696289 144.25439453 C247.85030273 144.91955078 248.06364258 145.58470703 248.28344727 146.27001953 C249.64938032 150.42897986 251.30898929 154.2301402 253.32446289 158.12939453 C254.45585145 162.14068123 254.40587932 165.97715656 254.32446289 170.12939453 C254.98446289 170.12939453 255.64446289 170.12939453 256.32446289 170.12939453 C256.32446289 176.72939453 256.32446289 183.32939453 256.32446289 190.12939453 C255.66446289 190.12939453 255.00446289 190.12939453 254.32446289 190.12939453 C254.28321289 191.03689453 254.24196289 191.94439453 254.19946289 192.87939453 C253.70190586 196.69144689 252.1385632 199.4250848 250.26196289 202.75439453 C246.88739538 209.39653107 245.67480051 214.77798643 247.32446289 222.12939453 C249.5186038 227.45048599 252.3883285 232.41701683 255.38476562 237.32104492 C256.38098782 239.23817089 256.88313446 241.02095449 257.32446289 243.12939453 C257.98446289 243.12939453 258.64446289 243.12939453 259.32446289 243.12939453 C261.30683885 245.87914183 263.07265288 248.69146408 264.76196289 251.62939453 C266.07466315 253.72971495 267.40410282 255.45159619 269.01196289 257.31689453 C271.32446289 260.12939453 271.32446289 260.12939453 271.32446289 262.12939453 C272.31446289 262.45939453 273.30446289 262.78939453 274.32446289 263.12939453 C275.35058238 264.78010849 276.34754432 266.44909459 277.32446289 268.12939453 C277.98446289 268.78939453 278.64446289 269.44939453 279.32446289 270.12939453 C281.32446289 272.12939453 281.32446289 272.12939453 282.88696289 274.75439453 C284.25064028 277.38683057 284.25064028 277.38683057 287.32446289 279.12939453 C288.38218028 280.76004217 289.37719335 282.43220327 290.32446289 284.12939453 C292.34490564 287.69133538 292.34490564 287.69133538 295.01196289 290.75439453 C296.32446289 292.12939453 296.32446289 292.12939453 296.32446289 295.12939453 C297.19071289 295.43876953 297.19071289 295.43876953 298.07446289 295.75439453 C301.18758989 297.65686103 302.53186228 299.99234346 304.32446289 303.12939453 C304.32446289 304.11939453 304.32446289 305.10939453 304.32446289 306.12939453 C305.31446289 306.45939453 306.30446289 306.78939453 307.32446289 307.12939453 C307.32446289 308.11939453 307.32446289 309.10939453 307.32446289 310.12939453 C307.98446289 310.12939453 308.64446289 310.12939453 309.32446289 310.12939453 C309.55232747 312.18017578 309.78019206 314.23095703 310.00805664 316.28173828 C310.14332903 318.14079682 310.14332903 318.14079682 311.32446289 319.12939453 C311.63733665 323.61391836 311.05504567 326.98873635 309.32446289 331.12939453 C303.95555754 336.74187971 297.1692222 340.60066974 290.32446289 344.12939453 C288.92233204 344.88388431 287.52140258 345.64060881 286.12133789 346.39892578 C284.58510957 347.22617598 283.04864881 348.05299467 281.51196289 348.87939453 C280.77002686 349.28085693 280.02809082 349.68231934 279.26367188 350.09594727 C278.20128296 350.66164429 278.20128296 350.66164429 277.11743164 351.23876953 C276.48345459 351.57875977 275.84947754 351.91875 275.19628906 352.26904297 C273.32446289 353.12939453 273.32446289 353.12939453 271.19287109 353.55224609 C268.91377091 354.01731435 268.91377091 354.01731435 267.63696289 357.25439453 C266.28091425 360.81402221 265.71126173 364.3387659 265.32446289 368.12939453 C265.98446289 368.12939453 266.64446289 368.12939453 267.32446289 368.12939453 C267.61321289 369.05751953 267.90196289 369.98564453 268.19946289 370.94189453 C269.21196289 374.2273112 269.21196289 374.2273112 271.32446289 377.12939453 C271.44946289 379.81689453 271.44946289 379.81689453 271.32446289 382.12939453 C271.98446289 382.12939453 272.64446289 382.12939453 273.32446289 382.12939453 C274.39279417 396.40772681 274.39279417 396.40772681 271.83618164 400.52783203 C269.40387298 402.59252468 267.58307752 404.12939453 264.32446289 404.12939453 C264.65446289 405.77939453 264.98446289 407.42939453 265.32446289 409.12939453 C265.98446289 409.12939453 266.64446289 409.12939453 267.32446289 409.12939453 C269.88751422 416.81854853 268.83511353 423.82605046 265.44946289 431.06689453 C264.4117182 433.08974469 263.37036468 435.11074988 262.32446289 437.12939453 C261.00881503 440.13595893 260.29278985 442.35110585 259.82446289 445.62939453 C259.37126082 448.80180903 258.64188483 451.23106626 257.32446289 454.12939453 C257.98446289 454.12939453 258.64446289 454.12939453 259.32446289 454.12939453 C261.02531108 459.45871885 261.84460258 464.56048936 262.32446289 470.12939453 C262.98446289 470.12939453 263.64446289 470.12939453 264.32446289 470.12939453 C265.4043955 475.44196623 265.54237992 480.60643397 265.57446289 486.00439453 C265.60540039 487.29410156 265.60540039 487.29410156 265.63696289 488.60986328 C265.67505857 494.88612607 265.11726861 500.87849493 260.8449707 505.8515625 C259.32446289 507.12939453 259.32446289 507.12939453 257.32446289 507.12939453 C257.22907227 507.71205078 257.13368164 508.29470703 257.03540039 508.89501953 C256.17100507 511.61169053 254.96905771 512.8853642 252.94946289 514.87939453 C252.34360352 515.49298828 251.73774414 516.10658203 251.11352539 516.73876953 C249.32446289 518.12939453 249.32446289 518.12939453 246.32446289 518.12939453 C246.32446289 518.78939453 246.32446289 519.44939453 246.32446289 520.12939453 C233.71423406 527.93813343 221.73743825 529.43679542 207.21899414 529.91845703 C203.53374371 529.85884347 203.53374371 529.85884347 201.32446289 531.12939453 C198.721294 531.27424317 196.14066978 531.36361536 193.53540039 531.41064453 C192.75814606 531.42905396 191.98089172 531.44746338 191.18008423 531.46643066 C188.68662169 531.52524213 186.19308771 531.57795481 183.69946289 531.62939453 C181.22727009 531.68104941 178.75516033 531.73419618 176.28311157 531.7923584 C174.74492838 531.82852348 173.20665381 531.86105679 171.66830444 531.88928223 C165.05340126 532.04423078 158.5192784 532.29988615 152.38696289 535.00439453 C149.08041249 536.42804817 145.84876694 537.58342747 142.38696289 538.56689453 C139.15018153 539.59652094 138.51072421 539.86862869 136.44946289 542.75439453 C136.07821289 543.53814453 135.70696289 544.32189453 135.32446289 545.12939453 C134.33446289 545.45939453 133.34446289 545.78939453 132.32446289 546.12939453 C131.99446289 547.77939453 131.66446289 549.42939453 131.32446289 551.12939453 C130.66446289 551.12939453 130.00446289 551.12939453 129.32446289 551.12939453 C129.32446289 551.78939453 129.32446289 552.44939453 129.32446289 553.12939453 C128.66446289 553.45939453 128.00446289 553.78939453 127.32446289 554.12939453 C126.20221434 556.00952559 126.20221434 556.00952559 125.19946289 558.19189453 C124.84625977 558.92537109 124.49305664 559.65884766 124.12915039 560.41455078 C123.86360352 560.98044922 123.59805664 561.54634766 123.32446289 562.12939453 C122.66446289 562.12939453 122.00446289 562.12939453 121.32446289 562.12939453 C119.55507828 566.33987459 118.169125 570.64442951 116.82446289 575.00439453 C116.61176758 575.68630859 116.39907227 576.36822266 116.17993164 577.07080078 C113.30566841 585.92761561 113.30566841 585.92761561 111.69946289 595.06689453 C111.62469727 595.83904297 111.54993164 596.61119141 111.47290039 597.40673828 C111.39942383 598.25945312 111.39942383 598.25945312 111.32446289 599.12939453 C110.66446289 599.12939453 110.00446289 599.12939453 109.32446289 599.12939453 C109.32446289 604.40939453 109.32446289 609.68939453 109.32446289 615.12939453 C108.66446289 615.12939453 108.00446289 615.12939453 107.32446289 615.12939453 C107.65446289 615.78939453 107.98446289 616.44939453 108.32446289 617.12939453 C108.67756336 621.51816489 108.6955916 625.91579169 108.76196289 630.31689453 C108.80772461 631.53699219 108.85348633 632.75708984 108.90063477 634.01416016 C108.98386094 640.67587301 108.81526687 645.10708279 104.06103516 650.01660156 C101.27266085 651.80338774 98.72482624 651.8965594 95.48461914 651.60986328 C89.3316237 650.24129467 85.40354073 645.35009986 81.25415039 640.93408203 C79.3593705 639.16204092 77.69303867 638.15051387 75.32446289 637.12939453 C75.32446289 636.46939453 75.32446289 635.80939453 75.32446289 635.12939453 C74.33446289 634.79939453 73.34446289 634.46939453 72.32446289 634.12939453 C71.31758443 632.46687429 70.31893867 630.7993633 69.32446289 629.12939453 C67.52118231 627.23920887 65.71786157 625.42234766 63.82446289 623.62939453 C60.39354879 620.38049179 57.69853657 617.2405953 55.32446289 613.12939453 C54.66446289 612.79939453 54.00446289 612.46939453 53.32446289 612.12939453 C52.2234268 610.35233369 51.19042985 608.53260368 50.19946289 606.69189453 C49.66063477 605.70318359 49.12180664 604.71447266 48.56665039 603.69580078 C47.32446289 601.12939453 47.32446289 601.12939453 47.32446289 599.12939453 C46.66446289 599.12939453 46.00446289 599.12939453 45.32446289 599.12939453 C44.82946289 596.15939453 44.82946289 596.15939453 44.32446289 593.12939453 C43.33446289 592.79939453 42.34446289 592.46939453 41.32446289 592.12939453 C40.29711914 590.37939453 40.29711914 590.37939453 39.38696289 588.12939453 C38.88616211 586.91703125 38.88616211 586.91703125 38.37524414 585.68017578 C38.02848633 584.83841797 37.68172852 583.99666016 37.32446289 583.12939453 C36.24269501 580.80710104 35.15536519 578.48772285 34.05883789 576.17236328 C33.32446289 574.12939453 33.32446289 574.12939453 33.32446289 570.12939453 C32.66446289 570.12939453 32.00446289 570.12939453 31.32446289 570.12939453 C31.21489258 569.54931641 31.10532227 568.96923828 30.99243164 568.37158203 C30.23736916 564.65151809 29.52689017 561.5180549 27.76196289 558.12939453 C23.99360416 550.2649937 25.21561422 540.63168488 25.32446289 532.12939453 C24.66446289 532.12939453 24.00446289 532.12939453 23.32446289 532.12939453 C23.29558475 528.65024512 23.27770602 525.17112623 23.26196289 521.69189453 C23.24939453 520.20206055 23.24939453 520.20206055 23.23657227 518.68212891 C23.23334961 517.73789062 23.23012695 516.79365234 23.22680664 515.82080078 C23.22156982 514.94625244 23.21633301 514.0717041 23.2109375 513.1706543 C23.32446289 511.12939453 23.32446289 511.12939453 24.32446289 510.12939453 C24.53957277 508.51009514 24.69529723 506.88280449 24.82446289 505.25439453 C24.90696289 504.26955078 24.98946289 503.28470703 25.07446289 502.27001953 C25.15696289 501.23361328 25.23946289 500.19720703 25.32446289 499.12939453 C25.48701006 497.08739576 25.65346324 495.04570286 25.82446289 493.00439453 C25.93274414 491.63927734 25.93274414 491.63927734 26.04321289 490.24658203 C26.32446289 488.12939453 26.32446289 488.12939453 27.32446289 487.12939453 C27.55521371 485.78192369 27.73599352 484.42561888 27.88696289 483.06689453 C28.03133789 481.76751953 28.17571289 480.46814453 28.32446289 479.12939453 C28.98446289 479.12939453 29.64446289 479.12939453 30.32446289 479.12939453 C30.11821289 478.61376953 29.91196289 478.09814453 29.69946289 477.56689453 C29.16559263 474.09673782 30.24769528 471.42303662 31.32446289 468.12939453 C31.98446289 468.12939453 32.64446289 468.12939453 33.32446289 468.12939453 C33.65446289 465.15939453 33.98446289 462.18939453 34.32446289 459.12939453 C34.98446289 459.12939453 35.64446289 459.12939453 36.32446289 459.12939453 C36.37344727 458.52611328 36.42243164 457.92283203 36.47290039 457.30126953 C36.54766602 456.50205078 36.62243164 455.70283203 36.69946289 454.87939453 C36.76907227 454.09048828 36.83868164 453.30158203 36.91040039 452.48876953 C37.33953402 450.04351753 38.11046927 448.2810255 39.32446289 446.12939453 C39.98446289 446.12939453 40.64446289 446.12939453 41.32446289 446.12939453 C41.65446289 444.14939453 41.98446289 442.16939453 42.32446289 440.12939453 C42.98446289 440.12939453 43.64446289 440.12939453 44.32446289 440.12939453 C44.65446289 438.14939453 44.98446289 436.16939453 45.32446289 434.12939453 C45.98446289 434.12939453 46.64446289 434.12939453 47.32446289 434.12939453 C47.40696289 433.18064453 47.48946289 432.23189453 47.57446289 431.25439453 C47.94571289 429.70751953 47.94571289 429.70751953 48.32446289 428.12939453 C49.64093408 427.43001921 50.9746844 426.7621032 52.32446289 426.12939453 C52.98001408 423.60206218 52.98001408 423.60206218 53.32446289 421.12939453 C53.98446289 420.79939453 54.64446289 420.46939453 55.32446289 420.12939453 C55.97415039 419.04658203 55.97415039 419.04658203 56.63696289 417.94189453 C60.62041601 411.302806 66.28051521 406.13064496 71.76977539 400.75439453 C72.99641595 399.54614044 74.22297713 398.33780576 75.44946289 397.12939453 C76.06950195 396.52611328 76.68954102 395.92283203 77.32836914 395.30126953 C80.58641046 392.07826091 82.99280956 389.09256286 85.32446289 385.12939453 C87.14858315 383.21854047 88.97272808 381.38051253 90.88696289 379.56689453 C95.33779472 375.39497992 95.33779472 375.39497992 98.32446289 370.12939453 C98.98446289 370.12939453 99.64446289 370.12939453 100.32446289 370.12939453 C100.32446289 369.46939453 100.32446289 368.80939453 100.32446289 368.12939453 C100.98446289 367.79939453 101.64446289 367.46939453 102.32446289 367.12939453 C103.35881845 365.48382887 104.35209802 363.81233373 105.32446289 362.12939453 C106.59495929 360.08890031 107.91877485 358.07921988 109.32446289 356.12939453 C109.98446289 356.12939453 110.64446289 356.12939453 111.32446289 356.12939453 C111.59258789 355.40751953 111.86071289 354.68564453 112.13696289 353.94189453 C113.31507037 351.15163998 114.75889258 348.71598896 116.32446289 346.12939453 C116.65446289 345.13939453 116.98446289 344.14939453 117.32446289 343.12939453 C117.98446289 342.79939453 118.64446289 342.46939453 119.32446289 342.12939453 C120.44671144 340.24926348 120.44671144 340.24926348 121.44946289 338.06689453 C121.80266602 337.33341797 122.15586914 336.59994141 122.51977539 335.84423828 C122.78532227 335.27833984 123.05086914 334.71244141 123.32446289 334.12939453 C123.98446289 334.12939453 124.64446289 334.12939453 125.32446289 334.12939453 C125.65446289 332.14939453 125.98446289 330.16939453 126.32446289 328.12939453 C126.98446289 328.12939453 127.64446289 328.12939453 128.32446289 328.12939453 C128.51008789 327.32501953 128.51008789 327.32501953 128.69946289 326.50439453 C129.44652305 323.66556593 130.37749653 320.90716251 131.32446289 318.12939453 C131.98446289 318.12939453 132.64446289 318.12939453 133.32446289 318.12939453 C133.40696289 317.16001953 133.48946289 316.19064453 133.57446289 315.19189453 C134.12947529 311.25130653 135.5969257 308.03806071 137.27758789 304.45751953 C138.93196076 300.7783918 140.13591206 296.97972986 141.32446289 293.12939453 C141.67508789 291.99501953 142.02571289 290.86064453 142.38696289 289.69189453 C143.56737962 285.20631097 144.46274923 280.68547634 145.32446289 276.12939453 C145.98446289 276.12939453 146.64446289 276.12939453 147.32446289 276.12939453 C147.31286133 275.57251953 147.30125977 275.01564453 147.28930664 274.44189453 C147.22769856 269.23161111 147.57446945 264.28559943 148.32446289 259.12939453 C148.98446289 259.12939453 149.64446289 259.12939453 150.32446289 259.12939453 C150.34946834 253.40429999 150.36746517 247.67923831 150.37939453 241.95410156 C150.38437581 240.01268967 150.39116325 238.07128143 150.39990234 236.12988281 C150.60289282 219.59545962 150.60289282 219.59545962 149.32446289 203.12939453 C148.99446289 202.79939453 148.66446289 202.46939453 148.32446289 202.12939453 C148.16863986 200.78924232 148.07402147 199.4418055 148.00805664 198.09423828 C147.94521484 196.8809082 147.94521484 196.8809082 147.88110352 195.64306641 C147.84178711 194.79292969 147.8024707 193.94279297 147.76196289 193.06689453 C147.7187793 192.21289062 147.6755957 191.35888672 147.63110352 190.47900391 C147.52469587 188.36267416 147.42404558 186.2460564 147.32446289 184.12939453 C146.66446289 184.12939453 146.00446289 184.12939453 145.32446289 184.12939453 C144.96240825 182.17250416 144.61004868 180.21381785 144.26196289 178.25439453 C144.06473633 177.16384766 143.86750977 176.07330078 143.66430664 174.94970703 C143.32446289 172.12939453 143.32446289 172.12939453 144.32446289 170.12939453 C143.66446289 170.12939453 143.00446289 170.12939453 142.32446289 170.12939453 C140.6236147 164.80007021 139.8043232 159.6982997 139.32446289 154.12939453 C138.66446289 154.12939453 138.00446289 154.12939453 137.32446289 154.12939453 C136.99446289 151.15939453 136.66446289 148.18939453 136.32446289 145.12939453 C135.66446289 145.12939453 135.00446289 145.12939453 134.32446289 145.12939453 C133.99446289 142.48939453 133.66446289 139.84939453 133.32446289 137.12939453 C132.66446289 137.12939453 132.00446289 137.12939453 131.32446289 137.12939453 C131.08856445 136.15486328 130.85266602 135.18033203 130.60961914 134.17626953 C129.29297885 129.56860852 127.06948581 125.55699527 124.76196289 121.37939453 C123.94616966 119.88568862 123.13228517 118.39093823 122.32055664 116.89501953 C121.96147217 116.24307617 121.6023877 115.59113281 121.23242188 114.91943359 C120.32446289 113.12939453 120.32446289 113.12939453 119.32446289 110.12939453 C118.66446289 109.79939453 118.00446289 109.46939453 117.32446289 109.12939453 C116.69946289 106.06689453 116.69946289 106.06689453 116.32446289 103.12939453 C115.66446289 103.12939453 115.00446289 103.12939453 114.32446289 103.12939453 C111.32446289 98.74477915 111.32446289 98.74477915 111.32446289 96.12939453 C110.33446289 95.79939453 109.34446289 95.46939453 108.32446289 95.12939453 C106.82446289 92.87939453 106.82446289 92.87939453 105.32446289 90.12939453 C103.45433797 86.47995915 103.45433797 86.47995915 100.32446289 84.12939453 C100.32446289 83.46939453 100.32446289 82.80939453 100.32446289 82.12939453 C99.66446289 82.12939453 99.00446289 82.12939453 98.32446289 82.12939453 C97.30988204 80.47156358 96.3127013 78.80306195 95.32446289 77.12939453 C91.55843693 72.87557854 87.5815425 68.74429495 82.76196289 65.69189453 C81.95758789 65.17626953 81.15321289 64.66064453 80.32446289 64.12939453 C80.32446289 63.46939453 80.32446289 62.80939453 80.32446289 62.12939453 C79.66446289 62.12939453 79.00446289 62.12939453 78.32446289 62.12939453 C77.99446289 61.46939453 77.66446289 60.80939453 77.32446289 60.12939453 C75.67052348 59.15053243 74.01103725 58.17979605 72.32446289 57.25830078 C70.4003847 56.17224883 68.59649233 54.9840037 66.76196289 53.75439453 C62.04801939 50.76214524 56.94377339 48.74983445 51.78930664 46.65673828 C48.32446289 45.12939453 48.32446289 45.12939453 45.02368164 43.16845703 C40.65821385 40.6094316 35.99681181 39.11887594 31.19946289 37.56689453 C30.27746094 37.26315918 29.35545898 36.95942383 28.40551758 36.64648438 C22.16600982 34.62666471 15.9581018 32.93979831 9.52758789 31.63720703 C7.32446289 31.12939453 7.32446289 31.12939453 6.32446289 30.12939453 C3.997043 29.75700735 1.66210574 29.43102587 -0.67553711 29.12939453 C-7.564426 28.24050564 -7.564426 28.24050564 -8.67553711 27.12939453 C-10.06901256 26.99738107 -11.46572163 26.8988142 -12.86303711 26.81689453 C-17.39846171 26.36984155 -20.05514687 24.97398687 -23.67553711 22.12939453 C-24.66553711 21.46939453 -25.65553711 20.80939453 -26.67553711 20.12939453 C-26.96850586 17.52783203 -26.96850586 17.52783203 -26.86303711 14.50439453 C-26.8359668 13.50150391 -26.80889648 12.49861328 -26.78100586 11.46533203 C-26.74620117 10.69447266 -26.71139648 9.92361328 -26.67553711 9.12939453 C-26.01553711 9.12939453 -25.35553711 9.12939453 -24.67553711 9.12939453 C-24.67553711 8.46939453 -24.67553711 7.80939453 -24.67553711 7.12939453 C-23.02553711 6.79939453 -21.37553711 6.46939453 -19.67553711 6.12939453 C-19.67553711 5.46939453 -19.67553711 4.80939453 -19.67553711 4.12939453 C-13.03594337 1.49645219 -7.20728346 0.00601035 0 0 Z " fill="#3FA2D1" transform="translate(545.675537109375,19.87060546875)"/>
<path d="M0 0 C1.24476105 -0.00095673 2.48952209 -0.00191345 3.77200317 -0.00289917 C6.39243623 -0.00357653 9.012871 -0.00175335 11.63330078 0.00244141 C15.61364571 0.00778676 19.59387734 0.0024859 23.57421875 -0.00390625 C26.13281275 -0.00324521 28.69140667 -0.00196352 31.25 0 C33.01305984 -0.00303635 33.01305984 -0.00303635 34.81173706 -0.00613403 C44.53067305 0.02102474 54.25637486 0.29872825 63.7578125 2.5078125 C65.335625 2.85972656 65.335625 2.85972656 66.9453125 3.21875 C69.91376333 4.18349652 71.6602789 4.81054316 73.7578125 7.1328125 C74.1484375 10.26953125 74.1484375 10.26953125 74.0078125 13.8203125 C73.97171875 14.99980469 73.935625 16.17929687 73.8984375 17.39453125 C73.85203125 18.29816406 73.805625 19.20179687 73.7578125 20.1328125 C66.96402193 24.1291599 61.80294848 26.31149347 53.8671875 26.88671875 C51.77397645 26.90984752 51.77397645 26.90984752 50.7578125 28.1328125 C47.69870146 28.58168329 44.64047212 28.95024581 41.56835938 29.29492188 C37.40348126 29.80062771 33.69386323 30.6958416 29.7578125 32.1328125 C28.2109375 32.5659375 28.2109375 32.5659375 26.6328125 33.0078125 C19.09974013 35.13854789 11.68168029 37.44008301 4.7578125 41.1328125 C3.30340275 41.78743384 1.84465528 42.4324626 0.3828125 43.0703125 C-7.48273128 46.24628707 -7.48273128 46.24628707 -14.2421875 51.1328125 C-15.2321875 51.1328125 -16.2221875 51.1328125 -17.2421875 51.1328125 C-17.2421875 51.7928125 -17.2421875 52.4528125 -17.2421875 53.1328125 C-18.62822446 54.11318011 -20.02423724 55.08220822 -21.46484375 55.98046875 C-23.31802147 57.18197958 -25.00665312 58.51835006 -26.7421875 59.8828125 C-29.95282432 62.22107139 -32.22754336 62.62240325 -36.2421875 62.1328125 C-36.5721875 63.1228125 -36.9021875 64.1128125 -37.2421875 65.1328125 C-37.9021875 65.1328125 -38.5621875 65.1328125 -39.2421875 65.1328125 C-39.5721875 66.1228125 -39.9021875 67.1128125 -40.2421875 68.1328125 C-40.9021875 68.1328125 -41.5621875 68.1328125 -42.2421875 68.1328125 C-42.5721875 69.1228125 -42.9021875 70.1128125 -43.2421875 71.1328125 C-43.9021875 71.1328125 -44.5621875 71.1328125 -45.2421875 71.1328125 C-45.5103125 71.7721875 -45.7784375 72.4115625 -46.0546875 73.0703125 C-47.2421875 75.1328125 -47.2421875 75.1328125 -50.2421875 76.1328125 C-50.5721875 77.1228125 -50.9021875 78.1128125 -51.2421875 79.1328125 C-51.9021875 79.1328125 -52.5621875 79.1328125 -53.2421875 79.1328125 C-53.5721875 80.1228125 -53.9021875 81.1128125 -54.2421875 82.1328125 C-54.9021875 82.1328125 -55.5621875 82.1328125 -56.2421875 82.1328125 C-56.644375 82.9371875 -56.644375 82.9371875 -57.0546875 83.7578125 C-57.4465625 84.5415625 -57.8384375 85.3253125 -58.2421875 86.1328125 C-58.6959375 87.0815625 -59.1496875 88.0303125 -59.6171875 89.0078125 C-61.2961767 92.23663788 -63.08062207 95.20423998 -65.2421875 98.1328125 C-65.9021875 98.1328125 -66.5621875 98.1328125 -67.2421875 98.1328125 C-67.396875 98.968125 -67.396875 98.968125 -67.5546875 99.8203125 C-68.38397158 102.6097226 -69.58517806 104.7467189 -71.2421875 107.1328125 C-71.9021875 107.1328125 -72.5621875 107.1328125 -73.2421875 107.1328125 C-73.34660156 107.68324219 -73.45101562 108.23367187 -73.55859375 108.80078125 C-74.38890072 111.63331416 -75.70219938 113.89131714 -77.1796875 116.4453125 C-79.53869407 120.6655017 -81.19597263 124.42484561 -82.2421875 129.1328125 C-82.9021875 129.1328125 -83.5621875 129.1328125 -84.2421875 129.1328125 C-84.4278125 130.64875 -84.4278125 130.64875 -84.6171875 132.1953125 C-85.22069646 135.99741893 -86.1196391 139.45334829 -87.2421875 143.1328125 C-87.7843028 144.94517836 -88.32595187 146.75768374 -88.8671875 148.5703125 C-89.32506536 150.09128302 -89.78323943 151.61216456 -90.2421875 153.1328125 C-90.9021875 153.1328125 -91.5621875 153.1328125 -92.2421875 153.1328125 C-92.5721875 156.1028125 -92.9021875 159.0728125 -93.2421875 162.1328125 C-93.9021875 162.1328125 -94.5621875 162.1328125 -95.2421875 162.1328125 C-95.23171387 162.70201416 -95.22124023 163.27121582 -95.21044922 163.85766602 C-95.16853032 166.4701688 -95.14274862 169.08260049 -95.1171875 171.6953125 C-95.10042969 172.59056641 -95.08367187 173.48582031 -95.06640625 174.40820312 C-94.97582882 186.77202221 -94.97582882 186.77202221 -98.7421875 190.6953125 C-99.2371875 191.1696875 -99.7321875 191.6440625 -100.2421875 192.1328125 C-102.0952832 196.39493262 -102.19135912 198.69107503 -101.2421875 203.1328125 C-101.13872314 204.78344841 -101.07743945 206.43712946 -101.05273438 208.09082031 C-101.03601685 209.04821106 -101.01929932 210.00560181 -101.0020752 210.99200439 C-100.98171204 212.52350128 -100.98171204 212.52350128 -100.9609375 214.0859375 C-100.94252808 215.14190125 -100.92411865 216.19786499 -100.90515137 217.28582764 C-100.82653037 221.79852271 -100.75845387 226.31136053 -100.68994141 230.82421875 C-100.63838772 234.11987075 -100.58110032 237.41538767 -100.5234375 240.7109375 C-100.50307434 242.25457977 -100.50307434 242.25457977 -100.4822998 243.82940674 C-100.45722351 245.2465799 -100.45722351 245.2465799 -100.43164062 246.69238281 C-100.41911255 247.52779602 -100.40658447 248.36320923 -100.39367676 249.22393799 C-100.449211 251.14210569 -100.449211 251.14210569 -99.2421875 252.1328125 C-99.03790613 253.90124642 -98.89455118 255.67679399 -98.77734375 257.453125 C-98.69935547 258.54625 -98.62136719 259.639375 -98.54101562 260.765625 C-98.38506014 263.07015736 -98.23136637 265.37484404 -98.08007812 267.6796875 C-97.66349795 273.46439438 -97.02569035 278.61949458 -95.2421875 284.1328125 C-95.1171875 287.5703125 -95.1171875 287.5703125 -95.2421875 290.1328125 C-94.5821875 290.1328125 -93.9221875 290.1328125 -93.2421875 290.1328125 C-92.9121875 294.7528125 -92.5821875 299.3728125 -92.2421875 304.1328125 C-91.5821875 304.1328125 -90.9221875 304.1328125 -90.2421875 304.1328125 C-88.57108708 307.09460023 -87.91535998 309.50352442 -87.6171875 312.8828125 C-87.54242188 313.68203125 -87.46765625 314.48125 -87.390625 315.3046875 C-87.34164062 315.90796875 -87.29265625 316.51125 -87.2421875 317.1328125 C-86.5821875 317.1328125 -85.9221875 317.1328125 -85.2421875 317.1328125 C-85.15582031 317.72449219 -85.06945312 318.31617188 -84.98046875 318.92578125 C-83.9770022 324.5691298 -82.71221834 327.30135749 -78.2421875 331.1328125 C-74.89808849 334.75558643 -73.70060347 337.20484081 -73.2421875 342.1328125 C-72.2521875 342.4628125 -71.2621875 342.7928125 -70.2421875 343.1328125 C-68.16688363 346.05361055 -67.2421875 347.50827981 -67.2421875 351.1328125 C-66.5821875 351.1328125 -65.9221875 351.1328125 -65.2421875 351.1328125 C-64.19574684 352.77071962 -63.2023692 354.44289271 -62.2421875 356.1328125 C-61.6853125 356.8546875 -61.1284375 357.5765625 -60.5546875 358.3203125 C-59.2421875 360.1328125 -59.2421875 360.1328125 -59.2421875 362.1328125 C-58.5821875 362.1328125 -57.9221875 362.1328125 -57.2421875 362.1328125 C-56.21606801 363.78352646 -55.21910607 365.45251256 -54.2421875 367.1328125 C-53.7471875 367.6278125 -53.2521875 368.1228125 -52.7421875 368.6328125 C-51.2421875 370.1328125 -51.2421875 370.1328125 -50.15625 372.22265625 C-46.83498027 377.27234185 -42.22790074 381.1818756 -37.87109375 385.33789062 C-37.16597656 386.02431641 -36.46085938 386.71074219 -35.734375 387.41796875 C-35.08839355 388.03551025 -34.44241211 388.65305176 -33.77685547 389.28930664 C-32.2421875 391.1328125 -32.2421875 391.1328125 -31.71142578 393.30249023 C-31.55657715 393.90649658 -31.40172852 394.51050293 -31.2421875 395.1328125 C-30.2521875 395.4628125 -29.2621875 395.7928125 -28.2421875 396.1328125 C-28.2421875 396.7928125 -28.2421875 397.4528125 -28.2421875 398.1328125 C-27.2521875 398.4628125 -26.2621875 398.7928125 -25.2421875 399.1328125 C-25.2421875 399.7928125 -25.2421875 400.4528125 -25.2421875 401.1328125 C-24.2521875 401.4628125 -23.2621875 401.7928125 -22.2421875 402.1328125 C-22.2421875 402.7928125 -22.2421875 403.4528125 -22.2421875 404.1328125 C-21.5821875 404.1328125 -20.9221875 404.1328125 -20.2421875 404.1328125 C-20.2421875 404.7928125 -20.2421875 405.4528125 -20.2421875 406.1328125 C-19.2521875 406.4628125 -18.2621875 406.7928125 -17.2421875 407.1328125 C-17.2421875 407.7928125 -17.2421875 408.4528125 -17.2421875 409.1328125 C-16.6646875 409.3390625 -16.0871875 409.5453125 -15.4921875 409.7578125 C-12.4068043 411.64332446 -11.13285151 414.08335442 -9.2421875 417.1328125 C-8.6646875 417.8753125 -8.0871875 418.6178125 -7.4921875 419.3828125 C-6.2421875 421.1328125 -6.2421875 421.1328125 -6.2421875 423.1328125 C-5.5821875 423.1328125 -4.9221875 423.1328125 -4.2421875 423.1328125 C-3.83226562 423.90367187 -3.42234375 424.67453125 -3 425.46875 C-2.46117187 426.47164063 -1.92234375 427.47453125 -1.3671875 428.5078125 C-0.83351563 429.50554687 -0.29984375 430.50328125 0.25 431.53125 C1.6398263 434.18629645 1.6398263 434.18629645 3.7578125 436.1328125 C5.67610287 440.29063805 7.05050679 444.60605597 7.7578125 449.1328125 C8.4178125 449.1328125 9.0778125 449.1328125 9.7578125 449.1328125 C10.0053125 450.4115625 10.2528125 451.6903125 10.5078125 453.0078125 C11.49005839 457.52044942 13.06938963 461.56597018 14.953125 465.7734375 C15.8356752 468.36110895 15.90222372 470.41788149 15.7578125 473.1328125 C16.4178125 473.1328125 17.0778125 473.1328125 17.7578125 473.1328125 C18.0878125 477.7528125 18.4178125 482.3728125 18.7578125 487.1328125 C19.4178125 487.1328125 20.0778125 487.1328125 20.7578125 487.1328125 C20.81839844 488.12023437 20.87898438 489.10765625 20.94140625 490.125 C21.02519531 491.40632813 21.10898437 492.68765625 21.1953125 494.0078125 C21.27652344 495.28398438 21.35773438 496.56015625 21.44140625 497.875 C21.54987277 501.01581402 21.54987277 501.01581402 22.7578125 503.1328125 C22.97256169 507.64182373 22.94360187 512.15512773 22.94311523 516.66870117 C22.9452673 518.89847922 22.96332231 521.12773375 22.98242188 523.35742188 C23.01660292 532.07261418 22.69113955 540.58420285 20.7578125 549.1328125 C20.4278125 549.4628125 20.0978125 549.7928125 19.7578125 550.1328125 C19.45697142 552.1076406 19.19280103 554.08809132 18.9453125 556.0703125 C18.17248426 561.32554452 16.95248759 565.75992678 14.82421875 570.60546875 C13.64268308 573.405665 12.73237567 576.2341502 11.8203125 579.1328125 C9.99507824 584.70951638 7.84601369 590.12236363 4.7578125 595.1328125 C4.0978125 595.4628125 3.4378125 595.7928125 2.7578125 596.1328125 C1.63556395 598.01294356 1.63556395 598.01294356 0.6328125 600.1953125 C0.27960938 600.92878906 -0.07359375 601.66226563 -0.4375 602.41796875 C-0.70304687 602.98386719 -0.96859375 603.54976562 -1.2421875 604.1328125 C-1.9021875 604.1328125 -2.5621875 604.1328125 -3.2421875 604.1328125 C-3.3246875 604.6690625 -3.4071875 605.2053125 -3.4921875 605.7578125 C-4.52254451 609.02060971 -6.18758412 611.4134845 -8.2421875 614.1328125 C-9.2321875 614.4628125 -10.2221875 614.7928125 -11.2421875 615.1328125 C-11.33113281 615.88949219 -11.42007813 616.64617188 -11.51171875 617.42578125 C-12.38075492 620.64632706 -13.32192005 621.44354053 -15.9296875 623.4453125 C-19.50931111 626.38162297 -22.06536439 629.3997753 -24.74609375 633.1484375 C-28.83212787 638.56803367 -33.5827218 642.44185661 -39.2421875 646.1328125 C-40.0671875 647.0196875 -40.8921875 647.9065625 -41.7421875 648.8203125 C-44.72032968 651.57509402 -46.21842576 652.05069491 -50.2421875 652.1328125 C-54.09596601 651.22604109 -56.89330398 650.37730745 -59.2421875 647.1328125 C-59.62986118 644.57476208 -59.84567754 642.22606429 -59.9375 639.65625 C-59.97527557 638.93039703 -60.01305115 638.20454407 -60.05197144 637.45669556 C-60.17035459 635.14082711 -60.26965184 632.82464469 -60.3671875 630.5078125 C-60.47512032 628.18413888 -60.58702516 625.86075071 -60.7038269 623.5375061 C-60.77542725 622.09212822 -60.84126409 620.64645157 -60.90090942 619.20053101 C-60.7820663 615.87989825 -60.7820663 615.87989825 -62.2421875 613.1328125 C-62.39801053 611.79266029 -62.49262892 610.44522347 -62.55859375 609.09765625 C-62.60048828 608.28876953 -62.64238281 607.47988281 -62.68554688 606.64648438 C-62.72486328 605.79634766 -62.76417969 604.94621094 -62.8046875 604.0703125 C-62.84787109 603.21630859 -62.89105469 602.36230469 -62.93554688 601.48242188 C-63.04195452 599.36609213 -63.14260481 597.24947437 -63.2421875 595.1328125 C-63.9021875 595.1328125 -64.5621875 595.1328125 -65.2421875 595.1328125 C-65.34015625 594.37097656 -65.438125 593.60914063 -65.5390625 592.82421875 C-66.40042553 586.87635848 -67.52945436 581.74772551 -70.17578125 576.34765625 C-71.323411 573.96411753 -72.24894985 571.54599929 -73.1796875 569.0703125 C-74.79353188 564.94890114 -76.80257974 561.38139259 -79.2890625 557.7265625 C-80.2421875 556.1328125 -80.2421875 556.1328125 -80.2421875 554.1328125 C-80.9021875 554.1328125 -81.5621875 554.1328125 -82.2421875 554.1328125 C-82.6134375 553.4728125 -82.9846875 552.8128125 -83.3671875 552.1328125 C-89.35652426 542.54987368 -98.50847262 536.98271882 -109.2421875 533.8203125 C-110.2321875 533.5934375 -111.2221875 533.3665625 -112.2421875 533.1328125 C-112.80550781 532.96394531 -113.36882812 532.79507813 -113.94921875 532.62109375 C-117.91485388 531.7766229 -121.97687429 531.73145788 -126.01757812 531.52734375 C-131.13977776 531.23522224 -131.13977776 531.23522224 -132.2421875 530.1328125 C-134.76897564 530.00921856 -137.27246063 529.94656413 -139.80078125 529.921875 C-141.40170147 529.89372299 -143.00261274 529.86505843 -144.60351562 529.8359375 C-147.11270059 529.79531467 -149.62173329 529.75843585 -152.13110352 529.73144531 C-161.22865555 529.62522327 -170.11947334 529.22416017 -179.109375 527.74609375 C-179.84453842 527.62605988 -180.57970184 527.506026 -181.33714294 527.38235474 C-187.29265885 526.31248499 -192.12660673 524.28463865 -197.2421875 521.1328125 C-197.88285156 520.79121094 -198.52351563 520.44960938 -199.18359375 520.09765625 C-205.77138748 516.5832177 -210.36370157 512.50461081 -214.2421875 506.1328125 C-214.9021875 505.1428125 -215.5621875 504.1528125 -216.2421875 503.1328125 C-216.3671875 500.4453125 -216.3671875 500.4453125 -216.2421875 498.1328125 C-216.9021875 498.1328125 -217.5621875 498.1328125 -218.2421875 498.1328125 C-218.2421875 490.2128125 -218.2421875 482.2928125 -218.2421875 474.1328125 C-217.5821875 474.1328125 -216.9221875 474.1328125 -216.2421875 474.1328125 C-215.9121875 471.1628125 -215.5821875 468.1928125 -215.2421875 465.1328125 C-214.5821875 465.1328125 -213.9221875 465.1328125 -213.2421875 465.1328125 C-213.2421875 455.2328125 -213.2421875 445.3328125 -213.2421875 435.1328125 C-213.9021875 435.1328125 -214.5621875 435.1328125 -215.2421875 435.1328125 C-215.7371875 431.6678125 -215.7371875 431.6678125 -216.2421875 428.1328125 C-217.8921875 427.4728125 -219.5421875 426.8128125 -221.2421875 426.1328125 C-221.2421875 421.5128125 -221.2421875 416.8928125 -221.2421875 412.1328125 C-220.5821875 412.1328125 -219.9221875 412.1328125 -219.2421875 412.1328125 C-219.2421875 411.4728125 -219.2421875 410.8128125 -219.2421875 410.1328125 C-218.5821875 409.8028125 -217.9221875 409.4728125 -217.2421875 409.1328125 C-216.65255072 406.89056592 -216.65255072 406.89056592 -217.2421875 404.1328125 C-218.95117124 402.38099709 -220.75585266 400.93503651 -222.7109375 399.46484375 C-223.21625 399.02527344 -223.7215625 398.58570313 -224.2421875 398.1328125 C-224.2421875 397.4728125 -224.2421875 396.8128125 -224.2421875 396.1328125 C-224.9021875 396.1328125 -225.5621875 396.1328125 -226.2421875 396.1328125 C-226.2421875 394.1528125 -226.2421875 392.1728125 -226.2421875 390.1328125 C-225.5821875 390.1328125 -224.9221875 390.1328125 -224.2421875 390.1328125 C-224.20480469 389.50375 -224.16742188 388.8746875 -224.12890625 388.2265625 C-223.7999112 383.94317592 -223.41485856 380.11458557 -221.7421875 376.1328125 C-219.51689426 370.72852892 -218.42924504 364.86197647 -220.1171875 359.1953125 C-220.4884375 358.5146875 -220.8596875 357.8340625 -221.2421875 357.1328125 C-221.7371875 355.6478125 -221.7371875 355.6478125 -222.2421875 354.1328125 C-223.8897913 353.42033518 -225.55982279 352.75880867 -227.2421875 352.1328125 C-228.58068421 351.13973429 -229.91370059 350.13924198 -231.2421875 349.1328125 C-234.20583691 347.52213347 -237.0409162 346.19990293 -240.2421875 345.1328125 C-246.93799732 342.90087589 -252.51282336 339.4143359 -257.2421875 334.1328125 C-257.2421875 333.1428125 -257.2421875 332.1528125 -257.2421875 331.1328125 C-258.5621875 331.1328125 -259.8821875 331.1328125 -261.2421875 331.1328125 C-262.63748331 328.34222088 -262.41192104 325.99549562 -262.4296875 322.8828125 C-262.44386719 321.76390625 -262.45804687 320.645 -262.47265625 319.4921875 C-262.23686063 316.05516666 -261.47065413 313.33750805 -260.2421875 310.1328125 C-259.5821875 310.1328125 -258.9221875 310.1328125 -258.2421875 310.1328125 C-258.0565625 308.67875 -258.0565625 308.67875 -257.8671875 307.1953125 C-257.6609375 306.1846875 -257.4546875 305.1740625 -257.2421875 304.1328125 C-256.5821875 303.8028125 -255.9221875 303.4728125 -255.2421875 303.1328125 C-254.19574684 301.49490538 -253.2023692 299.82273229 -252.2421875 298.1328125 C-249.46440972 293.24392361 -249.46440972 293.24392361 -247.2421875 292.1328125 C-246.20783194 290.48724684 -245.21455237 288.8157517 -244.2421875 287.1328125 C-242.9716911 285.09231828 -241.64787554 283.08263785 -240.2421875 281.1328125 C-239.5821875 281.1328125 -238.9221875 281.1328125 -238.2421875 281.1328125 C-238.2421875 280.4728125 -238.2421875 279.8128125 -238.2421875 279.1328125 C-237.5821875 278.8028125 -236.9221875 278.4728125 -236.2421875 278.1328125 C-235.20783194 276.48724684 -234.21455237 274.8157517 -233.2421875 273.1328125 C-231.9716911 271.09231828 -230.64787554 269.08263785 -229.2421875 267.1328125 C-228.5821875 267.1328125 -227.9221875 267.1328125 -227.2421875 267.1328125 C-226.9740625 266.3696875 -226.7059375 265.6065625 -226.4296875 264.8203125 C-225.2421875 262.1328125 -225.2421875 262.1328125 -223.8046875 260.7265625 C-222.03969793 258.92627314 -221.13407369 257.21574552 -220.0546875 254.9453125 C-219.53841797 253.87216797 -219.53841797 253.87216797 -219.01171875 252.77734375 C-218.63080078 251.96330078 -218.63080078 251.96330078 -218.2421875 251.1328125 C-217.5821875 251.1328125 -216.9221875 251.1328125 -216.2421875 251.1328125 C-215.9946875 250.4315625 -215.7471875 249.7303125 -215.4921875 249.0078125 C-212.01996528 241.02170139 -212.01996528 241.02170139 -208.2421875 239.1328125 C-207.11993895 237.25268144 -207.11993895 237.25268144 -206.1171875 235.0703125 C-205.76398438 234.33683594 -205.41078125 233.60335937 -205.046875 232.84765625 C-204.78132813 232.28175781 -204.51578125 231.71585938 -204.2421875 231.1328125 C-203.5821875 231.1328125 -202.9221875 231.1328125 -202.2421875 231.1328125 C-198.67923805 223.41308869 -199.56305948 215.00275105 -202.2421875 207.1328125 C-202.2421875 206.1428125 -202.2421875 205.1528125 -202.2421875 204.1328125 C-202.9021875 204.1328125 -203.5621875 204.1328125 -204.2421875 204.1328125 C-204.7371875 199.6778125 -204.7371875 199.6778125 -205.2421875 195.1328125 C-205.9021875 195.1328125 -206.5621875 195.1328125 -207.2421875 195.1328125 C-209.06681892 189.69497816 -209.5232932 184.9726867 -209.4296875 179.2578125 C-209.42904297 178.48695313 -209.42839844 177.71609375 -209.42773438 176.921875 C-209.3829858 171.2736108 -209.3829858 171.2736108 -208.2421875 170.1328125 C-208.00931742 168.45097302 -207.82954584 166.7615709 -207.6796875 165.0703125 C-207.59589844 164.15121094 -207.51210937 163.23210937 -207.42578125 162.28515625 C-207.33490234 161.21974609 -207.33490234 161.21974609 -207.2421875 160.1328125 C-206.5821875 160.1328125 -205.9221875 160.1328125 -205.2421875 160.1328125 C-205.20351562 159.17181641 -205.20351562 159.17181641 -205.1640625 158.19140625 C-204.75466355 151.9480722 -203.55393661 148.39264933 -200.2421875 143.1328125 C-199.43462732 141.19786633 -198.73632303 139.2412883 -198.03515625 137.265625 C-196.62572262 133.47473455 -194.91960226 129.81120425 -193.2421875 126.1328125 C-192.5821875 126.1328125 -191.9221875 126.1328125 -191.2421875 126.1328125 C-190.9121875 124.1528125 -190.5821875 122.1728125 -190.2421875 120.1328125 C-189.5821875 120.1328125 -188.9221875 120.1328125 -188.2421875 120.1328125 C-187.8709375 119.0809375 -187.8709375 119.0809375 -187.4921875 118.0078125 C-186.07038512 114.73766702 -184.36972462 111.9916905 -182.2421875 109.1328125 C-181.5821875 109.1328125 -180.9221875 109.1328125 -180.2421875 109.1328125 C-180.12488281 108.56691406 -180.00757813 108.00101562 -179.88671875 107.41796875 C-179.17836856 104.90654534 -178.18045351 102.85886579 -176.9296875 100.5703125 C-176.52105469 99.80589844 -176.11242187 99.04148437 -175.69140625 98.25390625 C-174.12031827 95.95444326 -172.4916789 94.74024259 -170.2421875 93.1328125 C-169.21205473 91.48460006 -168.21104122 89.81777548 -167.2421875 88.1328125 C-166.2421875 87.1328125 -165.2421875 86.1328125 -164.2421875 85.1328125 C-163.7471875 83.6478125 -163.7471875 83.6478125 -163.2421875 82.1328125 C-161.71875 80.703125 -161.71875 80.703125 -159.8671875 79.2578125 C-156.85623412 76.77712824 -155.21829414 74.50866134 -153.2421875 71.1328125 C-149.33346211 66.69153583 -145.19752225 63.36455255 -140.2421875 60.1328125 C-137.96977774 57.97693658 -135.81661072 55.73553243 -133.65625 53.46875 C-129.48164971 49.18081215 -125.09811063 45.61715032 -120.2421875 42.1328125 C-119.38367188 41.49214844 -118.52515625 40.85148437 -117.640625 40.19140625 C-101.39470173 28.1328125 -101.39470173 28.1328125 -96.2421875 28.1328125 C-96.2421875 27.4728125 -96.2421875 26.8128125 -96.2421875 26.1328125 C-93.89487962 24.80659865 -91.54054492 23.49701051 -89.1796875 22.1953125 C-88.52291016 21.82212891 -87.86613281 21.44894531 -87.18945312 21.06445312 C-82.80712505 18.66820477 -79.23518033 17.81117505 -74.2421875 17.1328125 C-73.21779271 16.15781746 -72.21711658 15.15727006 -71.2421875 14.1328125 C-68.28125 13.25390625 -68.28125 13.25390625 -64.8671875 12.5703125 C-60.7574865 11.73420092 -57.12419663 10.68678896 -53.2421875 9.1328125 C-49.87861951 8.25056516 -46.50870355 7.43191592 -43.125 6.6328125 C-39.3459378 5.72013333 -35.84228765 4.57905963 -32.2421875 3.1328125 C-30.0390625 2.75390625 -30.0390625 2.75390625 -27.9921875 2.5703125 C-24.45301236 2.55043839 -24.45301236 2.55043839 -23.2421875 1.1328125 C-15.58277094 -0.17940453 -7.74236173 -0.01328815 0 0 Z " fill="#E6A017" transform="translate(339.2421875,19.8671875)"/>
<path d="M0 0 C2.48818084 1.45321103 4.80047582 2.85487951 6.9921875 4.7265625 C6.9921875 5.3865625 6.9921875 6.0465625 6.9921875 6.7265625 C7.7346875 6.9946875 8.4771875 7.2628125 9.2421875 7.5390625 C11.9921875 8.7265625 11.9921875 8.7265625 13.9296875 10.2265625 C18.31078553 13.41281561 22.98356756 13.9813758 28.28198242 14.04882812 C30.12000679 14.07765076 30.12000679 14.07765076 31.99516296 14.10705566 C33.30773575 14.11555542 34.62030853 14.12405518 35.97265625 14.1328125 C36.98638526 14.14129463 36.98638526 14.14129463 38.02059364 14.14994812 C41.59943806 14.17983657 45.17812333 14.19835364 48.75708008 14.20703125 C52.42440016 14.2179682 56.09022283 14.2659754 59.75707531 14.32297516 C62.60299205 14.36052314 65.44855919 14.37065456 68.29470253 14.373703 C70.29480416 14.38257798 72.29471743 14.41972747 74.29447937 14.4576416 C82.90224361 14.41601315 88.97021022 12.81340635 95.9921875 7.7265625 C96.52373947 7.18729126 97.05529144 6.64802002 97.60295105 6.09240723 C100.37978511 3.36232902 103.68847607 3.53703447 107.3671875 3.4765625 C111.79425516 3.5289883 114.5227747 3.76735747 117.9921875 6.7265625 C118.8171875 7.3865625 119.6421875 8.0465625 120.4921875 8.7265625 C125.73784762 15.02135464 128.18724346 23.11314296 130.9921875 30.7265625 C132.26427193 33.92255964 132.26427193 33.92255964 134.9921875 35.7265625 C134.9921875 36.3865625 134.9921875 37.0465625 134.9921875 37.7265625 C135.6521875 37.7265625 136.3121875 37.7265625 136.9921875 37.7265625 C138.33114382 39.38871518 139.66348892 41.05619857 140.9921875 42.7265625 C142.63513945 44.08901046 144.30043087 45.42521125 145.9921875 46.7265625 C146.9921875 47.7265625 147.9921875 48.7265625 148.9921875 49.7265625 C152.92868308 53.4708507 155.29032803 54.20479501 160.69140625 54.125 C161.98369141 54.13015625 163.27597656 54.1353125 164.60742188 54.140625 C166.63695639 54.12598013 168.66578896 54.10180495 170.69506836 54.06640625 C181.41978951 53.9196538 188.2165567 55.45530056 196.19799805 62.73974609 C197.9921875 64.7265625 197.9921875 64.7265625 198.9921875 67.7265625 C199.6521875 68.0565625 200.3121875 68.3865625 200.9921875 68.7265625 C204.544199 74.07190664 204.44521816 78.97796511 204.3671875 85.1640625 C204.37878906 86.07994141 204.39039063 86.99582031 204.40234375 87.93945312 C204.37094138 95.23003648 203.19029868 100.67366246 197.9609375 106.04296875 C196.81461727 107.13551423 195.65812937 108.21748178 194.4921875 109.2890625 C188.93268877 114.43560511 185.13674935 118.94354189 183.9921875 126.7265625 C183.3321875 126.7265625 182.6721875 126.7265625 181.9921875 126.7265625 C181.9921875 131.3465625 181.9921875 135.9665625 181.9921875 140.7265625 C182.6521875 140.7265625 183.3121875 140.7265625 183.9921875 140.7265625 C184.3221875 143.3665625 184.6521875 146.0065625 184.9921875 148.7265625 C185.9821875 149.0565625 186.9721875 149.3865625 187.9921875 149.7265625 C188.2603125 150.3246875 188.5284375 150.9228125 188.8046875 151.5390625 C190.48674939 154.63759756 193.08210023 155.8286795 195.9921875 157.7265625 C195.9921875 158.3865625 195.9921875 159.0465625 195.9921875 159.7265625 C196.57645508 159.82404785 197.16072266 159.9215332 197.76269531 160.02197266 C200.45055569 160.8714213 201.67204406 162.01907768 203.6640625 164 C204.32792969 164.66 204.99179687 165.32 205.67578125 166 C206.69865234 167.04027344 206.69865234 167.04027344 207.7421875 168.1015625 C208.43957031 168.78734375 209.13695312 169.473125 209.85546875 170.1796875 C210.51417969 170.84226563 211.17289063 171.50484375 211.8515625 172.1875 C212.45452148 172.79384277 213.05748047 173.40018555 213.67871094 174.02490234 C214.9921875 175.7265625 214.9921875 175.7265625 214.9921875 178.7265625 C215.6521875 178.7265625 216.3121875 178.7265625 216.9921875 178.7265625 C217.3221875 180.7065625 217.6521875 182.6865625 217.9921875 184.7265625 C218.6521875 184.7265625 219.3121875 184.7265625 219.9921875 184.7265625 C221.40928485 189.61961235 221.17637612 194.48258264 221.1796875 199.5390625 C221.19193359 200.51166016 221.20417969 201.48425781 221.21679688 202.48632812 C221.2398769 213.84939359 217.53075164 225.25937683 210.03515625 234.01171875 C208.09769679 235.75046442 206.14381867 237.26312165 203.9921875 238.7265625 C203.03505859 239.39365234 203.03505859 239.39365234 202.05859375 240.07421875 C200.07653746 241.3783081 198.05225398 242.5497046 195.9921875 243.7265625 C195.2707959 244.15751221 194.5494043 244.58846191 193.80615234 245.0324707 C187.24204692 248.67957431 181.93475837 249.47240146 174.4921875 249.2890625 C173.52410156 249.30001953 172.55601562 249.31097656 171.55859375 249.32226562 C164.60816861 249.2522949 159.24159101 247.68936438 152.9921875 244.7265625 C152.21609131 244.38302734 151.43999512 244.03949219 150.64038086 243.68554688 C148.71094929 242.79402377 146.84377426 241.77018413 144.9921875 240.7265625 C144.6621875 239.7365625 144.3321875 238.7465625 143.9921875 237.7265625 C143.3321875 237.7265625 142.6721875 237.7265625 141.9921875 237.7265625 C140.63831814 236.07653422 139.30540608 234.4091238 137.9921875 232.7265625 C137.3321875 232.3965625 136.6721875 232.0665625 135.9921875 231.7265625 C135.9921875 231.0665625 135.9921875 230.4065625 135.9921875 229.7265625 C135.0021875 229.3965625 134.0121875 229.0665625 132.9921875 228.7265625 C131.4921875 226.4765625 131.4921875 226.4765625 129.9921875 223.7265625 C128.12206258 220.07712712 128.12206258 220.07712712 124.9921875 217.7265625 C124.9921875 217.0665625 124.9921875 216.4065625 124.9921875 215.7265625 C124.1878125 215.571875 124.1878125 215.571875 123.3671875 215.4140625 C120.9921875 214.7265625 120.9921875 214.7265625 118.60498047 213.2019043 C113.34231702 211.0528115 108.44136979 211.35635071 102.8125 211.43359375 C101.6445993 211.43783859 100.47669861 211.44208344 99.27340698 211.44645691 C95.55442964 211.4632085 91.83600023 211.50085552 88.1171875 211.5390625 C85.59115368 211.55411383 83.06511133 211.56780145 80.5390625 211.58007812 C74.35658485 211.61310058 68.17442533 211.66326559 61.9921875 211.7265625 C60.79463933 215.31920702 60.66123792 217.95373724 60.9921875 221.7265625 C62.84650837 223.99800324 62.84650837 223.99800324 64.9921875 225.7265625 C65.3221875 226.7165625 65.6521875 227.7065625 65.9921875 228.7265625 C66.6521875 229.0565625 67.3121875 229.3865625 67.9921875 229.7265625 C67.9921875 230.3865625 67.9921875 231.0465625 67.9921875 231.7265625 C68.9821875 232.0565625 69.9721875 232.3865625 70.9921875 232.7265625 C70.9921875 233.3865625 70.9921875 234.0465625 70.9921875 234.7265625 C71.9821875 235.0565625 72.9721875 235.3865625 73.9921875 235.7265625 C73.9921875 236.3865625 73.9921875 237.0465625 73.9921875 237.7265625 C74.6109375 237.9740625 75.2296875 238.2215625 75.8671875 238.4765625 C77.9921875 239.7265625 77.9921875 239.7265625 78.828125 241.48828125 C80.36320127 244.43995476 82.3979455 246.43416486 84.7421875 248.7890625 C85.58265625 249.64628906 86.423125 250.50351562 87.2890625 251.38671875 C91.12304934 254.70544436 94.4499446 256.53378214 99.4921875 257.1640625 C103.61471562 257.82661166 105.69102553 259.21480883 108.9921875 261.7265625 C109.9203125 262.3659375 110.8484375 263.0053125 111.8046875 263.6640625 C115.08104736 266.7532018 114.9282074 269.67458206 115.1953125 274.06640625 C115.21851563 275.84724609 115.21851563 275.84724609 115.2421875 277.6640625 C115.26796875 278.84871094 115.29375 280.03335937 115.3203125 281.25390625 C114.96195391 285.0465347 113.89044389 287.45456794 111.9921875 290.7265625 C111.3321875 290.7265625 110.6721875 290.7265625 109.9921875 290.7265625 C107.52561078 295.51405619 107.68597279 300.03639271 107.67333984 305.2902832 C107.66329422 306.24686325 107.6532486 307.2034433 107.64289856 308.18901062 C107.61206566 311.34344902 107.59503097 314.49780253 107.578125 317.65234375 C107.55941346 319.84238922 107.53984006 322.03242749 107.5194397 324.22245789 C107.46811115 329.98124949 107.42848917 335.74006447 107.39129639 341.4989624 C107.35126138 347.37762234 107.30016671 353.25618497 107.25 359.13476562 C107.15323209 370.66529624 107.06882995 382.19588178 106.9921875 393.7265625 C107.6521875 393.7265625 108.3121875 393.7265625 108.9921875 393.7265625 C109.0540625 394.9228125 109.1159375 396.1190625 109.1796875 397.3515625 C109.74142783 402.15188895 111.76116636 404.24700127 114.9921875 407.7265625 C114.9921875 408.3865625 114.9921875 409.0465625 114.9921875 409.7265625 C115.6521875 409.7265625 116.3121875 409.7265625 116.9921875 409.7265625 C118.49189181 417.50781521 120.63269445 429.85460797 116.1171875 436.9140625 C111.72012567 441.54779338 105.45371295 445.97316902 98.9296875 446.3515625 C92.07743663 445.26390363 86.02898964 442.60088716 80.9921875 437.7265625 C80.9921875 437.0665625 80.9921875 436.4065625 80.9921875 435.7265625 C80.3321875 435.7265625 79.6721875 435.7265625 78.9921875 435.7265625 C78.6621875 433.7465625 78.3321875 431.7665625 77.9921875 429.7265625 C77.3321875 429.7265625 76.6721875 429.7265625 75.9921875 429.7265625 C75.2811081 414.37909883 75.2811081 414.37909883 78.8359375 409.5546875 C81.45223393 405.41811072 82.55647925 400.37734082 83.9921875 395.7265625 C84.6521875 395.7265625 85.3121875 395.7265625 85.9921875 395.7265625 C86.3221875 391.1065625 86.6521875 386.4865625 86.9921875 381.7265625 C87.6521875 381.7265625 88.3121875 381.7265625 88.9921875 381.7265625 C88.9921875 355.3265625 88.9921875 328.9265625 88.9921875 301.7265625 C88.3321875 301.7265625 87.6721875 301.7265625 86.9921875 301.7265625 C86.89421875 301.15808594 86.79625 300.58960938 86.6953125 300.00390625 C85.90918029 295.94448216 85.09140375 292.55679458 82.8671875 289.0390625 C80.87715323 285.5233353 80.60596349 283.68535862 80.9921875 279.7265625 C80.3321875 279.7265625 79.6721875 279.7265625 78.9921875 279.7265625 C78.87101562 278.90671875 78.74984375 278.086875 78.625 277.2421875 C78.45742188 276.16453125 78.28984375 275.086875 78.1171875 273.9765625 C77.95476562 272.90921875 77.79234375 271.841875 77.625 270.7421875 C77.05474593 268.02468045 76.25081275 266.15919953 74.9921875 263.7265625 C74.9921875 262.7365625 74.9921875 261.7465625 74.9921875 260.7265625 C74.0021875 260.3965625 73.0121875 260.0665625 71.9921875 259.7265625 C71.9921875 259.0665625 71.9921875 258.4065625 71.9921875 257.7265625 C71.0021875 257.3965625 70.0121875 257.0665625 68.9921875 256.7265625 C68.9921875 256.0665625 68.9921875 255.4065625 68.9921875 254.7265625 C68.095 254.324375 68.095 254.324375 67.1796875 253.9140625 C64.09944224 252.24192936 62.46674922 250.54691767 60.7109375 247.51171875 C56.86623632 241.28155525 51.97020704 233.97689645 44.49023438 232.09814453 C39.24353418 231.44467807 34.02539472 231.4644584 28.7512207 231.74145508 C26.9921875 231.7265625 26.9921875 231.7265625 25.9921875 230.7265625 C24.6000151 230.45692069 23.20324774 230.2108272 21.8046875 229.9765625 C16.95174427 228.95325818 14.43953864 227.26230726 10.9921875 223.7265625 C10.9921875 223.0665625 10.9921875 222.4065625 10.9921875 221.7265625 C10.0021875 221.3965625 9.0121875 221.0665625 7.9921875 220.7265625 C1.84339444 212.43905881 0.3684436 203.81042229 0.9921875 193.7265625 C1.6521875 193.7265625 2.3121875 193.7265625 2.9921875 193.7265625 C3.1159375 193.1696875 3.2396875 192.6128125 3.3671875 192.0390625 C4.05195605 189.50541886 4.98352513 187.14735218 5.9921875 184.7265625 C6.6521875 184.7265625 7.3121875 184.7265625 7.9921875 184.7265625 C8.3221875 183.7365625 8.6521875 182.7465625 8.9921875 181.7265625 C9.6521875 181.7265625 10.3121875 181.7265625 10.9921875 181.7265625 C10.9921875 181.0665625 10.9921875 180.4065625 10.9921875 179.7265625 C12.3671875 178.1015625 12.3671875 178.1015625 13.9921875 176.7265625 C14.6521875 176.7265625 15.3121875 176.7265625 15.9921875 176.7265625 C16.3221875 175.7365625 16.6521875 174.7465625 16.9921875 173.7265625 C22.34865062 170.75306547 26.75974281 170.308793 32.8046875 170.4765625 C33.9484082 170.48429687 33.9484082 170.48429687 35.11523438 170.4921875 C40.6809102 170.57092385 40.6809102 170.57092385 42.9921875 171.7265625 C42.9921875 172.3865625 42.9921875 173.0465625 42.9921875 173.7265625 C43.57871094 173.84257812 44.16523438 173.95859375 44.76953125 174.078125 C47.12554438 174.76546802 48.58933744 175.65063292 50.5546875 177.1015625 C51.13347656 177.52179688 51.71226562 177.94203125 52.30859375 178.375 C54.00975705 179.74066706 55.55046542 181.0876444 56.9921875 182.7265625 C56.9921875 183.3865625 56.9921875 184.0465625 56.9921875 184.7265625 C57.6521875 184.7265625 58.3121875 184.7265625 58.9921875 184.7265625 C61.03388235 187.63205132 61.9921875 189.12798296 61.9921875 192.7265625 C68.82449523 192.68477822 75.65599595 192.61233937 82.48779297 192.51904297 C84.80965889 192.49089718 87.13161949 192.46965101 89.45361328 192.45556641 C92.80029549 192.43404895 96.14584699 192.38735126 99.4921875 192.3359375 C100.5227124 192.33470886 101.5532373 192.33348022 102.61499023 192.33221436 C109.07707249 192.2022452 113.48898524 191.08639378 118.9921875 187.7265625 C119.62809814 187.3947699 120.26400879 187.06297729 120.91918945 186.72113037 C124.49312954 184.83593829 126.78173848 183.10040574 128.9921875 179.7265625 C129.6521875 179.3965625 130.3121875 179.0665625 130.9921875 178.7265625 C131.20029053 177.81922363 131.20029053 177.81922363 131.41259766 176.89355469 C132.138167 174.18076888 133.29426916 173.03708588 135.265625 171.0546875 C135.925625 170.39082031 136.585625 169.72695312 137.265625 169.04296875 C138.30589844 168.02009766 138.30589844 168.02009766 139.3671875 166.9765625 C140.05296875 166.27917969 140.73875 165.58179688 141.4453125 164.86328125 C142.10789062 164.20457031 142.77046875 163.54585937 143.453125 162.8671875 C144.05946777 162.26422852 144.66581055 161.66126953 145.29052734 161.04003906 C146.9921875 159.7265625 146.9921875 159.7265625 149.9921875 159.7265625 C149.9921875 159.0665625 149.9921875 158.4065625 149.9921875 157.7265625 C150.9203125 157.1284375 151.8484375 156.5303125 152.8046875 155.9140625 C156.03242348 153.69894957 157.13552404 152.06855674 158.9921875 148.7265625 C159.6521875 148.7265625 160.3121875 148.7265625 160.9921875 148.7265625 C164.6641442 139.83081026 164.28758978 131.15755368 163.9921875 121.7265625 C163.3321875 121.7265625 162.6721875 121.7265625 161.9921875 121.7265625 C157.9921875 114.9765625 157.9921875 114.9765625 157.9921875 112.7265625 C157.3321875 112.7265625 156.6721875 112.7265625 155.9921875 112.7265625 C154.63831814 111.07653422 153.30540608 109.4091238 151.9921875 107.7265625 C151.3321875 107.3965625 150.6721875 107.0665625 149.9921875 106.7265625 C149.9921875 106.0665625 149.9921875 105.4065625 149.9921875 104.7265625 C149.0021875 104.3965625 148.0121875 104.0665625 146.9921875 103.7265625 C141.97327131 96.4729464 142.32804765 88.72871451 142.2421875 80.2265625 C142.21398376 78.81767234 142.18405027 77.40881569 142.15234375 76 C142.08197657 72.57546373 142.02911165 69.15159545 141.9921875 65.7265625 C141.3321875 65.7265625 140.6721875 65.7265625 139.9921875 65.7265625 C138.20913226 63.08764074 137.00159129 60.75477387 135.9921875 57.7265625 C134.67498821 57.02855946 133.33880795 56.36596502 131.9921875 55.7265625 C130.0703125 54.0703125 130.0703125 54.0703125 128.2421875 52.2265625 C127.62859375 51.618125 127.015 51.0096875 126.3828125 50.3828125 C124.9921875 48.7265625 124.9921875 48.7265625 124.9921875 46.7265625 C116.11036555 42.97749274 116.11036555 42.97749274 106.6796875 41.4765625 C101.22449186 41.05397692 97.21701319 38.20723562 92.69140625 35.3203125 C88.10562314 32.61264317 84.31897239 32.60364267 79.02050781 32.61303711 C77.98087639 32.61281807 77.98087639 32.61281807 76.92024231 32.6125946 C74.63690017 32.61328943 72.35364033 32.62106165 70.0703125 32.62890625 C68.48419235 32.63077196 66.89807162 32.63219514 65.31195068 32.63319397 C61.14282635 32.63700712 56.973737 32.64682713 52.80462646 32.65789795 C48.54814121 32.66813793 44.29165028 32.67269713 40.03515625 32.67773438 C31.68748397 32.68845048 23.33984009 32.70551246 14.9921875 32.7265625 C14.9921875 33.3865625 14.9921875 34.0465625 14.9921875 34.7265625 C13.01897697 36.0992307 11.01675598 37.43083867 8.9921875 38.7265625 C8.3321875 39.3865625 7.6721875 40.0465625 6.9921875 40.7265625 C6.0021875 40.7265625 5.0121875 40.7265625 3.9921875 40.7265625 C3.9921875 41.3865625 3.9921875 42.0465625 3.9921875 42.7265625 C-0.67028847 46.88948747 -5.48645423 47.06418349 -11.5234375 47.01953125 C-15.32767707 46.57091809 -17.17449639 45.26163481 -20.0078125 42.7265625 C-20.0078125 42.0665625 -20.0078125 41.4065625 -20.0078125 40.7265625 C-20.6059375 40.4584375 -21.2040625 40.1903125 -21.8203125 39.9140625 C-25.31869787 38.01493901 -26.74126704 36.52619889 -28.0078125 32.7265625 C-28.6678125 32.3965625 -29.3278125 32.0665625 -30.0078125 31.7265625 C-30.08926193 29.01761483 -30.14851864 26.31114987 -30.1953125 23.6015625 C-30.22044922 22.84101562 -30.24558594 22.08046875 -30.27148438 21.296875 C-30.35042725 15.19195916 -29.11765776 11.23931455 -25.10546875 6.4609375 C-24.43386719 5.80609375 -23.76226562 5.15125 -23.0703125 4.4765625 C-22.40128906 3.81140625 -21.73226563 3.14625 -21.04296875 2.4609375 C-15.06305765 -2.63518635 -7.1672266 -3.0344362 0 0 Z " fill="#E6B212" transform="translate(404.0078125,69.2734375)"/>
<path d="M0 0 C1.10601562 -0.01740234 1.10601562 -0.01740234 2.234375 -0.03515625 C8.199251 -0.00308702 11.24969875 1.40670298 15.54296875 5.3828125 C16.54263672 6.43082031 16.54263672 6.43082031 17.5625 7.5 C20.18765457 10.31917568 20.18765457 10.31917568 23.375 12.375 C25.19492579 15.31137479 25.67821101 17.76498658 25.90234375 21.18359375 C25.97259766 22.09560547 26.04285156 23.00761719 26.11523438 23.94726562 C26.24645893 25.85326982 26.37407936 27.75952567 26.49804688 29.66601562 C27.20256525 38.65973222 30.48122433 42.81593752 36.75 49 C37.31460938 49.57234375 37.87921875 50.1446875 38.4609375 50.734375 C43.89730653 56.14557566 48.50721451 58.60961043 56.0625 60.1875 C62.83329776 61.7312543 68.95854612 63.81788736 74.375 68.375 C74.375 69.035 74.375 69.695 74.375 70.375 C75.365 70.705 76.355 71.035 77.375 71.375 C77.375 72.035 77.375 72.695 77.375 73.375 C78.035 73.375 78.695 73.375 79.375 73.375 C79.40196009 76.1458983 79.42181952 78.9165345 79.4375 81.6875 C79.44587891 82.47318359 79.45425781 83.25886719 79.46289062 84.06835938 C79.46611328 84.82568359 79.46933594 85.58300781 79.47265625 86.36328125 C79.47789307 87.05977783 79.48312988 87.75627441 79.48852539 88.47387695 C79.375 90.375 79.375 90.375 78.375 93.375 C77.715 93.375 77.055 93.375 76.375 93.375 C76.375 94.035 76.375 94.695 76.375 95.375 C75.715 95.375 75.055 95.375 74.375 95.375 C74.375 96.035 74.375 96.695 74.375 97.375 C72.50822374 100.17879626 70.37211939 101.86256475 67.375 103.375 C59.73693748 104.42938472 53.10829122 104.3640095 46.375 100.375 C44 98.375 44 98.375 42.375 96.375 C42.375 95.385 42.375 94.395 42.375 93.375 C41.385 93.045 40.395 92.715 39.375 92.375 C38.61516115 89.66770015 38.02252423 87.06590042 37.5 84.3125 C36.12116124 77.76522229 34.50404439 72.73575932 30.375 67.375 C29.88 66.488125 29.385 65.60125 28.875 64.6875 C24.4584187 57.87860382 17.06421951 52.00552246 9.375 49.375 C8.50617188 48.8696875 7.63734375 48.364375 6.7421875 47.84375 C2.65508189 46.0609754 -0.48362506 45.96196486 -4.875 46.0625 C-5.95394531 46.05766602 -5.95394531 46.05766602 -7.0546875 46.05273438 C-11.30207605 45.97417481 -11.30207605 45.97417481 -14.625 48.375 C-15.615 48.375 -16.605 48.375 -17.625 48.375 C-17.625 49.035 -17.625 49.695 -17.625 50.375 C-19.27502828 51.72886936 -20.9424387 53.06178142 -22.625 54.375 C-23.12 55.365 -23.12 55.365 -23.625 56.375 C-24.285 56.375 -24.945 56.375 -25.625 56.375 C-25.625 57.035 -25.625 57.695 -25.625 58.375 C-27.28715268 59.71395632 -28.95463607 61.04630142 -30.625 62.375 C-31.98744796 64.01795195 -33.32364875 65.68324337 -34.625 67.375 C-36.25 69.1875 -36.25 69.1875 -37.625 70.375 C-38.285 70.375 -38.945 70.375 -39.625 70.375 C-39.625 71.035 -39.625 71.695 -39.625 72.375 C-41.28715268 73.71395632 -42.95463607 75.04630142 -44.625 76.375 C-45.346875 77.2825 -46.06875 78.19 -46.8125 79.125 C-47.410625 79.8675 -48.00875 80.61 -48.625 81.375 C-49.285 81.375 -49.945 81.375 -50.625 81.375 C-50.73529541 81.97570312 -50.84559082 82.57640625 -50.95922852 83.1953125 C-52.04601807 86.75338258 -54.91654694 88.8919221 -57.5625 91.375 C-62.40399377 95.77137425 -62.40399377 95.77137425 -65.625 101.375 C-66.285 101.375 -66.945 101.375 -67.625 101.375 C-67.91375 102.385625 -68.2025 103.39625 -68.5 104.4375 C-70.0625 109.90625 -70.0625 109.90625 -71.625 115.375 C-72.285 115.375 -72.945 115.375 -73.625 115.375 C-73.68558594 116.08527344 -73.74617188 116.79554688 -73.80859375 117.52734375 C-73.93427734 118.90599609 -73.93427734 118.90599609 -74.0625 120.3125 C-74.18431641 121.68728516 -74.18431641 121.68728516 -74.30859375 123.08984375 C-74.625 125.375 -74.625 125.375 -75.625 126.375 C-75.83517016 128.68395269 -75.99339941 130.99773969 -76.125 133.3125 C-76.51478186 140.15456372 -76.51478186 140.15456372 -77.625 142.375 C-78.41852517 150.15154669 -75.40365621 156.40167974 -70.625 162.375 C-70.625 163.035 -70.625 163.695 -70.625 164.375 C-70.08359375 164.41882813 -69.5421875 164.46265625 -68.984375 164.5078125 C-65.44177839 165.80989271 -63.37384608 168.53581137 -60.875 171.25 C-55.01488219 177.32952801 -50.76636803 180.35201503 -42 180.6875 C-38.23015154 180.5583956 -35.17201513 179.68585342 -31.625 178.375 C-29.29322025 178.03096692 -26.96012959 177.69550798 -24.625 177.375 C-24.295 177.045 -23.965 176.715 -23.625 176.375 C-21.96070949 176.27676063 -20.29218069 176.24526369 -18.625 176.25 C-17.7175 176.24742187 -16.81 176.24484375 -15.875 176.2421875 C-13.625 176.375 -13.625 176.375 -12.625 177.375 C-11.3875 177.41625 -10.15 177.4575 -8.875 177.5 C0.22218858 178.38788561 12.52473457 185.29309974 18.375 192.375 C18.705 193.365 19.035 194.355 19.375 195.375 C20.035 195.705 20.695 196.035 21.375 196.375 C21.375 197.035 21.375 197.695 21.375 198.375 C22.035 198.375 22.695 198.375 23.375 198.375 C24.19802143 200.22452048 25.00791366 202.07988564 25.8125 203.9375 C26.26496094 204.97003906 26.71742188 206.00257813 27.18359375 207.06640625 C29.49833973 213.49456969 29.58183954 219.99538841 29.625 226.75 C29.6559375 227.94882812 29.6559375 227.94882812 29.6875 229.171875 C29.74087017 237.4175669 27.26437931 244.15186699 23.375 251.375 C22.715 251.375 22.055 251.375 21.375 251.375 C21.31957031 251.91125 21.26414062 252.4475 21.20703125 253 C19.98354748 256.4923856 17.61591328 258.79292352 15.0625 261.375 C14.53285645 261.9117334 14.00321289 262.4484668 13.45751953 263.00146484 C9.02634861 267.23935156 4.77015633 269.26279649 -1.2265625 270.7265625 C-3.78725991 271.20522436 -3.78725991 271.20522436 -5.625 273.375 C-16.77762831 274.95082851 -29.47140113 274.38521846 -39.625 269.375 C-40.30820312 269.05917969 -40.99140625 268.74335938 -41.6953125 268.41796875 C-50.56237491 263.62544717 -59.58486927 254.65710885 -63.171875 245.21484375 C-63.625 243.375 -63.625 243.375 -63.625 240.375 C-64.285 240.375 -64.945 240.375 -65.625 240.375 C-65.68558594 239.60414063 -65.74617188 238.83328125 -65.80859375 238.0390625 C-65.89238281 237.03617188 -65.97617187 236.03328125 -66.0625 235 C-66.14371094 234.00226563 -66.22492188 233.00453125 -66.30859375 231.9765625 C-66.47465626 229.39572387 -66.47465626 229.39572387 -67.625 227.375 C-68.19199607 221.13804324 -67.21733716 215.38891625 -65.625 209.375 C-64.965 209.375 -64.305 209.375 -63.625 209.375 C-63.5435778 207.14644426 -63.48561921 204.91702345 -63.4375 202.6875 C-63.40269531 201.44613281 -63.36789062 200.20476562 -63.33203125 198.92578125 C-63.83359288 192.84685434 -67.23849355 189.51075299 -71.44140625 185.328125 C-72.37017578 184.40128906 -73.29894531 183.47445312 -74.25585938 182.51953125 C-74.97745239 181.80724365 -74.97745239 181.80724365 -75.71362305 181.08056641 C-77.19188409 179.62067037 -78.66187747 178.15282061 -80.13085938 176.68359375 C-86.55718349 169.87537491 -86.55718349 169.87537491 -95.26171875 168.12890625 C-96.96424805 168.07959961 -96.96424805 168.07959961 -98.70117188 168.02929688 C-101.08910852 167.96859757 -103.47713295 167.91124934 -105.86523438 167.85742188 C-113.73154896 167.62200986 -120.0187857 166.95721805 -127.0625 163.25 C-128.08150391 162.72019531 -128.08150391 162.72019531 -129.12109375 162.1796875 C-129.61738281 161.91414062 -130.11367188 161.64859375 -130.625 161.375 C-130.625 160.715 -130.625 160.055 -130.625 159.375 C-131.285 159.375 -131.945 159.375 -132.625 159.375 C-134.25 158 -134.25 158 -135.625 156.375 C-135.625 155.715 -135.625 155.055 -135.625 154.375 C-136.615 154.045 -137.605 153.715 -138.625 153.375 C-145.82364856 145.16245727 -144.10394159 133.4990883 -143.625 123.375 C-142.965 123.375 -142.305 123.375 -141.625 123.375 C-141.295 121.395 -140.965 119.415 -140.625 117.375 C-139.965 117.375 -139.305 117.375 -138.625 117.375 C-138.54378906 116.80910156 -138.46257812 116.24320312 -138.37890625 115.66015625 C-137.38050682 112.63391963 -135.79473327 111.07536426 -133.5625 108.8125 C-132.82902344 108.04808594 -132.09554688 107.28367187 -131.33984375 106.49609375 C-124.80361431 101.38937061 -117.75076705 100.86067248 -109.6875 100.375 C-99.43852621 99.7551308 -91.47617592 97.91717547 -82.8125 92.3125 C-76.82759534 88.47272246 -76.82759534 88.47272246 -74.30078125 87.25390625 C-72.4360026 86.48398661 -72.4360026 86.48398661 -71.625 84.375 C-70.965 84.375 -70.305 84.375 -69.625 84.375 C-69.13 82.89 -69.13 82.89 -68.625 81.375 C-67.965 81.375 -67.305 81.375 -66.625 81.375 C-66.625 80.715 -66.625 80.055 -66.625 79.375 C-64.97497172 78.02113064 -63.3075613 76.68821858 -61.625 75.375 C-61.295 74.715 -60.965 74.055 -60.625 73.375 C-59.965 73.375 -59.305 73.375 -58.625 73.375 C-58.13 71.89 -58.13 71.89 -57.625 70.375 C-56.965 70.375 -56.305 70.375 -55.625 70.375 C-55.13 68.89 -55.13 68.89 -54.625 67.375 C-53.965 67.375 -53.305 67.375 -52.625 67.375 C-52.625 66.715 -52.625 66.055 -52.625 65.375 C-50.97497172 64.02113064 -49.3075613 62.68821858 -47.625 61.375 C-47.13 60.385 -47.13 60.385 -46.625 59.375 C-45.965 59.375 -45.305 59.375 -44.625 59.375 C-44.295 58.385 -43.965 57.395 -43.625 56.375 C-42.965 56.375 -42.305 56.375 -41.625 56.375 C-41.295 55.385 -40.965 54.395 -40.625 53.375 C-39.965 53.375 -39.305 53.375 -38.625 53.375 C-38.625 52.715 -38.625 52.055 -38.625 51.375 C-37.25 49.75 -37.25 49.75 -35.625 48.375 C-34.965 48.375 -34.305 48.375 -33.625 48.375 C-33.295 47.385 -32.965 46.395 -32.625 45.375 C-31.965 45.375 -31.305 45.375 -30.625 45.375 C-30.295 44.385 -29.965 43.395 -29.625 42.375 C-28.965 42.375 -28.305 42.375 -27.625 42.375 C-27.625 41.715 -27.625 41.055 -27.625 40.375 C-26.965 40.045 -26.305 39.715 -25.625 39.375 C-24.96944881 36.84766765 -24.96944881 36.84766765 -24.625 34.375 C-25.22038574 34.38023682 -25.81577148 34.38547363 -26.42919922 34.39086914 C-29.11945547 34.41161999 -31.80969489 34.42465407 -34.5 34.4375 C-35.43714844 34.44587891 -36.37429688 34.45425781 -37.33984375 34.46289062 C-38.68369141 34.46772461 -38.68369141 34.46772461 -40.0546875 34.47265625 C-41.29581299 34.48051147 -41.29581299 34.48051147 -42.56201172 34.48852539 C-44.625 34.375 -44.625 34.375 -46.625 33.375 C-49.66006546 33.10982351 -52.70463662 33.14340099 -55.75 33.125 C-56.58015625 33.104375 -57.4103125 33.08375 -58.265625 33.0625 C-65.51996826 33.01701822 -71.99310878 34.19803785 -77.375 39.5 C-82.05661316 44.06798177 -87.33750293 43.61250004 -93.5625 43.6875 C-94.36107422 43.71650391 -95.15964844 43.74550781 -95.98242188 43.77539062 C-100.01837597 43.81885989 -102.08487701 43.71507744 -105.578125 41.515625 C-108.64314016 38.31022747 -110.625 35.89360392 -110.625 31.375 C-111.285 31.375 -111.945 31.375 -112.625 31.375 C-112.625 26.095 -112.625 20.815 -112.625 15.375 C-111.965 15.375 -111.305 15.375 -110.625 15.375 C-110.625 14.385 -110.625 13.395 -110.625 12.375 C-109.25 10.6875 -109.25 10.6875 -107.625 9.375 C-106.965 9.375 -106.305 9.375 -105.625 9.375 C-105.625 8.715 -105.625 8.055 -105.625 7.375 C-101.60371398 3.44177133 -97.18801073 3.60069856 -91.8203125 3.3125 C-86.17604255 3.42290137 -82.77420045 5.30927443 -78.5 8.9375 C-71.54220948 14.83649631 -63.32521288 14.52197872 -54.6328125 14.47265625 C-53.68687225 14.4712413 -52.74093201 14.46982635 -51.7663269 14.46836853 C-48.76085171 14.46279484 -45.75545247 14.4502472 -42.75 14.4375 C-40.70573025 14.4324816 -38.66145932 14.42791929 -36.6171875 14.42382812 C-31.61976264 14.41283403 -26.62239417 14.39558757 -21.625 14.375 C-21.439375 12.92673828 -21.439375 12.92673828 -21.25 11.44921875 C-21.04375 10.43472656 -20.8375 9.42023438 -20.625 8.375 C-18.625 7.1875 -18.625 7.1875 -16.625 6.375 C-16.295 5.385 -15.965 4.395 -15.625 3.375 C-10.34910358 0.47121205 -5.9526409 -0.0946533 0 0 Z " fill="#409FCF" transform="translate(439.625,136.625)"/>
<path d="M0 0 C7.97394137 -0.78175896 7.97394137 -0.78175896 11.625 2 C12.40875 2.99 13.1925 3.98 14 5 C15.16584636 6.27158591 16.33257581 7.54236252 17.5 8.8125 C22.6418428 14.75915297 29 22.81678154 29 31 C29.66 31 30.32 31 31 31 C31.33 34.63 31.66 38.26 32 42 C32.66 42 33.32 42 34 42 C34 44.64 34 47.28 34 50 C34.66 50 35.32 50 36 50 C39.77208541 68.48084615 40.12665144 86.15708003 40 105 C44.62 105 49.24 105 54 105 C49.87507508 110.7021021 49.87507508 110.7021021 46.0625 112 C41.9606263 112 38.78218989 111.2128274 35.36767578 108.88916016 C33.28160284 106.00768347 33.42753137 102.96144095 33.3046875 99.5234375 C33.26691193 98.79758453 33.22913635 98.07173157 33.19021606 97.32388306 C33.07183291 95.00801461 32.97253566 92.69183219 32.875 90.375 C32.76706718 88.05132638 32.65516234 85.72793821 32.5383606 83.4046936 C32.46676025 81.95931572 32.40092341 80.51363907 32.34127808 79.06771851 C32.4601212 75.74708575 32.4601212 75.74708575 31 73 C30.84417697 71.65984779 30.74955858 70.31241097 30.68359375 68.96484375 C30.64169922 68.15595703 30.59980469 67.34707031 30.55664062 66.51367188 C30.51732422 65.66353516 30.47800781 64.81339844 30.4375 63.9375 C30.39431641 63.08349609 30.35113281 62.22949219 30.30664062 61.34960938 C30.20023298 59.23327963 30.09958269 57.11666187 30 55 C29.34 55 28.68 55 28 55 C27.90203125 54.23816406 27.8040625 53.47632813 27.703125 52.69140625 C26.84176197 46.74354598 25.71273314 41.61491301 23.06640625 36.21484375 C21.9187765 33.83130503 20.99323765 31.41318679 20.0625 28.9375 C18.44865562 24.81608864 16.43960776 21.24858009 13.953125 17.59375 C13 16 13 16 13 14 C12.34 14 11.68 14 11 14 C10.62875 13.34 10.2575 12.68 9.875 12 C7.58300044 8.3328007 4.75425933 5.65273147 1.64453125 2.671875 C0 1 0 1 0 0 Z " fill="#B35E25" transform="translate(246,560)"/>
<path d="M0 0 C2 1 2 1 3 3 C3.11319257 4.53627451 3.16662385 6.07716194 3.18945312 7.61743164 C3.21452942 9.05385765 3.21452942 9.05385765 3.2401123 10.51930237 C3.25368774 11.55578415 3.26726318 12.59226593 3.28125 13.66015625 C3.30886414 15.25046913 3.30886414 15.25046913 3.33703613 16.87290955 C3.41593384 21.4240381 3.48360301 25.97531839 3.55224609 30.52661133 C3.60383148 33.84203745 3.66113081 37.15733042 3.71875 40.47265625 C3.73232544 41.51116226 3.74590088 42.54966827 3.7598877 43.61964417 C3.78496399 45.05134193 3.78496399 45.05134193 3.81054688 46.51196289 C3.82307495 47.35642471 3.83560303 48.20088654 3.84851074 49.07093811 C3.79041084 51.00693677 3.79041084 51.00693677 5 52 C5.20428137 53.76843392 5.34763632 55.54398149 5.46484375 57.3203125 C5.54283203 58.4134375 5.62082031 59.5065625 5.70117188 60.6328125 C5.85712736 62.93734486 6.01082113 65.24203154 6.16210938 67.546875 C6.57868955 73.33158188 7.21649715 78.48668208 9 84 C9.125 87.4375 9.125 87.4375 9 90 C9.66 90 10.32 90 11 90 C11.33 94.29 11.66 98.58 12 103 C5.56987982 99.14192789 3.37401366 94.74659265 1.3125 87.625 C0.98272994 86.14103473 0.67867823 84.65108794 0.40234375 83.15625 C0.00351017 81.01881178 -0.5412367 78.96849597 -1.125 76.875 C-2.00264235 72.98829814 -2.16433955 69.94414928 -2 66 C-2.66 66 -3.32 66 -4 66 C-5.78488842 49.107306 -5.22011886 32.17283762 -4.1875 15.25 C-4.11748779 13.96996094 -4.04747559 12.68992188 -3.9753418 11.37109375 C-3.89453369 10.18128906 -3.81372559 8.99148437 -3.73046875 7.765625 C-3.66239014 6.70118164 -3.59431152 5.63673828 -3.52416992 4.54003906 C-3 2 -3 2 0 0 Z " fill="#654125" transform="translate(235,220)"/>
<path d="M0 0 C7.92 0.33 15.84 0.66 24 1 C24 1.99 24 2.98 24 4 C25.30324219 3.98259766 25.30324219 3.98259766 26.6328125 3.96484375 C27.78523437 3.95582031 28.93765625 3.94679687 30.125 3.9375 C31.26195312 3.92589844 32.39890625 3.91429687 33.5703125 3.90234375 C36.8129156 3.994673 39.81932612 4.38610094 43 5 C43 5.66 43 6.32 43 7 C43.59167969 7.04898438 44.18335938 7.09796875 44.79296875 7.1484375 C49.19104472 7.56456867 52.96928897 8.04965595 57 10 C57 10.66 57 11.32 57 12 C58.299375 12.103125 59.59875 12.20625 60.9375 12.3125 C65.90160353 12.848308 70.34248334 14.24930225 75 16 C75 16.66 75 17.32 75 18 C75.57878906 18.12890625 76.15757812 18.2578125 76.75390625 18.390625 C84.27378828 20.43080169 89.67556071 24.51334106 94 31 C94 31.99 94 32.98 94 34 C89.66851422 32.29774294 85.39422858 30.47632903 81.125 28.625 C80.10212891 28.18800781 80.10212891 28.18800781 79.05859375 27.7421875 C75.7670878 26.31273349 72.72005233 24.83378107 69.625 22.99609375 C65.28823846 20.45330303 60.64071265 18.97924682 55.875 17.4375 C54.95299805 17.13376465 54.03099609 16.8300293 53.08105469 16.51708984 C46.84154693 14.49727018 40.63363891 12.81040378 34.203125 11.5078125 C32 11 32 11 31 10 C28.67258011 9.62761282 26.33764285 9.30163134 24 9 C17.11111111 8.11111111 17.11111111 8.11111111 16 7 C14.60652455 6.86798654 13.20981548 6.76941967 11.8125 6.6875 C7.11074816 6.22257398 4.62710177 4.99235896 1 2 C0.67 1.34 0.34 0.68 0 0 Z " fill="#115B93" transform="translate(521,40)"/>
<path d="M0 0 C3.65623751 3.65623751 3.06859904 8.76146695 3.18847656 13.70947266 C3.47125464 23.08827903 5.38941646 30.11324051 11.8125 37.25 C14 40 14 40 14.3125 43.375 C14.209375 44.24125 14.10625 45.1075 14 46 C14.99 46 15.98 46 17 46 C17 46.66 17 47.32 17 48 C12.21932771 47.57817597 9.25128703 45.35876759 6 42 C3.75 38.875 3.75 38.875 2 36 C1.34 35.01 0.68 34.02 0 33 C-0.125 30.3125 -0.125 30.3125 0 28 C-0.66 28 -1.32 28 -2 28 C-2 20.08 -2 12.16 -2 4 C-1.34 4 -0.68 4 0 4 C0 2.68 0 1.36 0 0 Z " fill="#9C5624" transform="translate(123,490)"/>
<path d="M0 0 C2.66613311 5.33226621 1.64531936 14.37878824 0.3125 20.125 C-1.22572856 23.49445303 -2.93170067 24.98138202 -6 27 C-6.33 26.67 -6.66 26.34 -7 26 C-6.96116181 23.29626453 -6.85305598 20.6340214 -6.6875 17.9375 C-6.65205078 17.19822266 -6.61660156 16.45894531 -6.58007812 15.69726562 C-6.28008287 10.57943607 -5.51535941 5.9071386 -4 1 C-2 0 -2 0 0 0 Z " fill="#623C26" transform="translate(243,186)"/>
<path d="M0 0 C0.66 0.33 1.32 0.66 2 1 C0.8906856 6.99029777 -2.52607215 11.03447305 -7 15 C-9.2931217 16.57002069 -11.48690665 17.76716175 -14 19 C-14.66 18.67 -15.32 18.34 -16 18 C-15.67 16.68 -15.34 15.36 -15 14 C-14.34 14 -13.68 14 -13 14 C-12.92523438 13.43667969 -12.85046875 12.87335938 -12.7734375 12.29296875 C-11.72339339 9.17995918 -9.96221504 7.60055032 -7.625 5.3125 C-6.83351563 4.52488281 -6.04203125 3.73726562 -5.2265625 2.92578125 C-3 1 -3 1 0 0 Z " fill="#3A8DBA" transform="translate(314,240)"/>
<path d="M0 0 C0.66 1.65 1.32 3.3 2 5 C-0.31 7.64 -2.62 10.28 -5 13 C-9 12 -9 12 -11 11 C-10.72943538 6.40040149 -8.74396837 4.275978 -5.66796875 1.13671875 C-4 0 -4 0 0 0 Z " fill="#D6B910" transform="translate(196,85)"/>
<path d="M0 0 C0.99 0.33 1.98 0.66 3 1 C3.33 2.32 3.66 3.64 4 5 C11.59 5 19.18 5 27 5 C27 6.32 27 7.64 27 9 C29.31 9 31.62 9 34 9 C34 9.33 34 9.66 34 10 C31.36 10 28.72 10 26 10 C26 9.01 26 8.02 26 7 C25.35450195 7.00523682 24.70900391 7.01047363 24.04394531 7.01586914 C21.11264015 7.03668657 18.18135057 7.04967534 15.25 7.0625 C14.23421875 7.07087891 13.2184375 7.07925781 12.171875 7.08789062 C11.1921875 7.09111328 10.2125 7.09433594 9.203125 7.09765625 C8.30239258 7.10289307 7.40166016 7.10812988 6.47363281 7.11352539 C4.16610196 7.00762312 2.20865595 6.65132813 0 6 C0 4.02 0 2.04 0 0 Z " fill="#2C83B7" transform="translate(519,34)"/>
<path d="M0 0 C2 3 2 3 2.8125 5.125 C3.88778304 7.28277867 3.88778304 7.28277867 6.625 7.75 C7.40875 7.8325 8.1925 7.915 9 8 C9.33 10.97 9.66 13.94 10 17 C4.79851714 14.91940685 3.25531577 11.24084416 0.91796875 6.47265625 C0 4 0 4 0 0 Z " fill="#8F5E1F" transform="translate(237,306)"/>
<path d="M0 0 C2 1 2 1 2.75 2.6875 C3.08937645 5.82673219 2.12469641 8.08902106 1 11 C0.67 11 0.34 11 0 11 C-0.33 12.65 -0.66 14.3 -1 16 C-1.33 16 -1.66 16 -2 16 C-2.05384521 13.70858714 -2.09272087 11.41681812 -2.125 9.125 C-2.14820313 7.84882813 -2.17140625 6.57265625 -2.1953125 5.2578125 C-2 2 -2 2 0 0 Z " fill="#654124" transform="translate(235,220)"/>
<path d="M0 0 C0.33 0 0.66 0 1 0 C1 2.31 1 4.62 1 7 C1.99 7 2.98 7 4 7 C4.33 8.98 4.66 10.96 5 13 C3.68 13 2.36 13 1 13 C-0.32229189 10.35541621 -0.09677194 8.32238699 -0.0625 5.375 C-0.05347656 4.37210937 -0.04445313 3.36921875 -0.03515625 2.3359375 C-0.02355469 1.56507813 -0.01195313 0.79421875 0 0 Z " fill="#A47513" transform="translate(77,338)"/>
<path d="M0 0 C1.65 0 3.3 0 5 0 C5 0.66 5 1.32 5 2 C5.99 2 6.98 2 8 2 C8 2.66 8 3.32 8 4 C8.99 4 9.98 4 11 4 C11 4.66 11 5.32 11 6 C6.87248551 5.39301257 3.6678852 3.96189209 0 2 C0 1.34 0 0.68 0 0 Z " fill="#0B336B" transform="translate(593,62)"/>
<path d="M0 0 C4.42857143 5.14285714 4.42857143 5.14285714 5 9 C2.525 8.01 2.525 8.01 0 7 C0 4.69 0 2.38 0 0 Z " fill="#2472AE" transform="translate(610,65)"/>
<path d="M0 0 C0.66 0.33 1.32 0.66 2 1 C2.625 3.0625 2.625 3.0625 3 5 C1.35 5.33 -0.3 5.66 -2 6 C-1.125 1.125 -1.125 1.125 0 0 Z " fill="#7D5424" transform="translate(235,220)"/>
<path d="M0 0 C0.99 0.33 1.98 0.66 3 1 C3.33 2.65 3.66 4.3 4 6 C2.68 6 1.36 6 0 6 C0 4.02 0 2.04 0 0 Z " fill="#2A80B6" transform="translate(519,34)"/>
</svg>
